<svg height="20" viewBox="0 0 96 96" width="20" xmlns="http://www.w3.org/2000/svg">
    <g id="Layer_4">
        <g>
            <path
                d="m73.838 8.863h-51.676c-7.821 0-14.162 6.34-14.162 14.162v31.383c0 7.822 6.341 14.162 14.162 14.162h22.711l18.823 17.641c.682.639 1.5.926 2.302.926 1.75 0 3.421-1.365 3.421-3.406v-15.161h4.419c7.821 0 14.162-6.34 14.162-14.162v-31.383c0-7.822-6.341-14.162-14.162-14.162zm8.497 45.545c0 4.686-3.812 8.497-8.497 8.497h-10.084v15.597l-16.641-15.596h-24.951c-4.685 0-8.497-3.812-8.497-8.497v-31.384c0-4.686 3.812-8.497 8.497-8.497h51.675c4.685 0 8.497 3.812 8.497 8.497v31.383z" fill="#F4F4F4"/>
            <path
                d="m32.457 33.839c-1.195 0-2.362.481-3.206 1.326-.844.844-1.326 2.011-1.326 3.206 0 1.189.482 2.362 1.326 3.206.844.839 2.011 1.326 3.206 1.326 1.19 0 2.357-.487 3.201-1.326.844-.844 1.331-2.016 1.331-3.206 0-1.195-.487-2.362-1.331-3.206-.845-.845-2.012-1.326-3.201-1.326z" fill="#F4F4F4"/>
            <path
                d="m48.001 33.839c-1.195 0-2.362.481-3.206 1.326s-1.326 2.011-1.326 3.206c0 1.189.481 2.362 1.326 3.206.844.839 2.011 1.326 3.206 1.326 1.19 0 2.362-.487 3.201-1.326.844-.844 1.331-2.011 1.331-3.206s-.487-2.362-1.331-3.206c-.839-.845-2.011-1.326-3.201-1.326z" fill="#F4F4F4"/>
            <path
                d="m63.546 33.839c-1.195 0-2.362.481-3.206 1.326-.844.844-1.326 2.011-1.326 3.206s.481 2.362 1.326 3.206c.844.839 2.011 1.326 3.206 1.326s2.362-.487 3.206-1.326c.838-.844 1.326-2.011 1.326-3.206s-.487-2.362-1.326-3.206c-.844-.845-2.011-1.326-3.206-1.326z" fill="#F4F4F4"/>
        </g>
    </g>
</svg>