<svg width="22" height="22" viewBox="0 0 22 22" fill="none" xmlns="http://www.w3.org/2000/svg">
<path d="M17.8093 4.46011C17.4672 4.11799 16.9142 4.11799 16.572 4.46011L12.8157 8.21649L10.8093 6.21011C10.559 5.95986 10.1828 5.88461 9.85555 6.02024C9.5283 6.15499 9.31567 6.47524 9.31567 6.82874V12.0787C9.31567 12.5626 9.70679 12.9537 10.1907 12.9537H15.4407C15.7942 12.9537 16.1144 12.7411 16.2492 12.4139C16.3848 12.0866 16.3095 11.7104 16.0593 11.4601L14.0529 9.45374L17.8093 5.69736C18.1514 5.35524 18.1514 4.80224 17.8093 4.46011Z" fill="#F4F4F4"/>
<path d="M18.9407 0.703735H3.19067C1.74342 0.703735 0.565674 1.88149 0.565674 3.32874V19.0787C0.565674 20.526 1.74342 21.7037 3.19067 21.7037H18.9407C20.3879 21.7037 21.5657 20.526 21.5657 19.0787V3.32874C21.5657 1.88149 20.3879 0.703735 18.9407 0.703735ZM19.8157 19.0787C19.8157 19.5617 19.4237 19.9537 18.9407 19.9537H8.44067V15.1412C8.44067 14.4167 7.85267 13.8287 7.12817 13.8287H2.31567V3.32874C2.31567 2.84574 2.70767 2.45374 3.19067 2.45374H18.9407C19.4237 2.45374 19.8157 2.84574 19.8157 3.32874V19.0787Z" fill="#F4F4F4"/>
</svg>
