<svg width="17" height="17" viewBox="0 0 17 17" fill="none" xmlns="http://www.w3.org/2000/svg">
<path d="M14.8739 9.56305V15.9376H2.12484V9.56305H0V10.6255H1.06242V17H15.9363V10.6255H16.9987V9.56305H14.8739Z" fill="#DE8734"/>
<path d="M7.09448 10.4349C7.38064 10.5137 7.67287 10.5684 7.96816 10.5984V13.0616L7.0157 12.1091L6.26457 12.8603L8.49937 15.0951L10.7342 12.8603L9.98304 12.1091L9.03058 13.0616V10.5984C11.9518 10.3026 14.0801 7.69475 13.7844 4.77356C13.7686 4.61755 13.7459 4.46234 13.7164 4.30832L12.6731 4.50859C13.114 6.81085 11.6051 9.03463 9.30289 9.47557C7.00066 9.91651 4.77684 8.4076 4.33591 6.10537C3.89497 3.80314 5.40387 1.57932 7.7061 1.13839C8.34542 1.01594 9.00435 1.04217 9.63191 1.21508L9.91504 0.191969C7.08651 -0.586918 4.16217 1.07464 3.38328 3.90317C2.60439 6.7317 4.26595 9.65605 7.09448 10.4349Z" fill="#DE8734"/>
<path d="M11.9777 1.29848C11.6805 1.04028 11.3553 0.816141 11.0083 0.630218L10.5063 1.56568C10.7837 1.71488 11.0438 1.8943 11.2818 2.10061L11.9777 1.29848Z" fill="#DE8734"/>
<path d="M12.3937 3.60925L13.3668 3.18428C13.2086 2.82355 13.0108 2.48152 12.7772 2.16435L11.922 2.79437C12.109 3.04762 12.2672 3.32093 12.3937 3.60925Z" fill="#DE8734"/>
<path d="M8.49937 3.71974H10.093V2.65732H9.03058V1.5949H7.96816V2.75506C7.13993 3.04676 6.70504 3.95467 6.99674 4.78286C7.22118 5.42004 7.8238 5.84584 8.49937 5.84458C8.79276 5.84458 9.03058 6.0824 9.03058 6.37579C9.03058 6.66918 8.79276 6.907 8.49937 6.907H6.90574V7.96942H7.96816V9.03184H9.03058V7.87168C9.8588 7.57998 10.2937 6.67207 10.002 5.84388C9.77756 5.20666 9.17494 4.7809 8.49937 4.78216C8.20597 4.78216 7.96816 4.54434 7.96816 4.25095C7.96816 3.95755 8.20597 3.71974 8.49937 3.71974Z" fill="#DE8734"/>
<path d="M5.31211 13.8127H4.24968V12.7503H3.18726V14.8752H5.31211V13.8127Z" fill="#DE8734"/>
<path d="M11.6866 13.8127V14.8752H13.8115V12.7503H12.7491V13.8127H11.6866Z" fill="#DE8734"/>
</svg>
