<svg width="30" height="30" viewBox="0 0 30 30" fill="none" xmlns="http://www.w3.org/2000/svg">
<path d="M19.639 26.6524L19.639 26.6524C19.8737 26.8723 20.1578 26.9726 20.437 26.9726C21.0391 26.9726 21.6204 26.5022 21.6204 25.7937V21.3639H22.8053C25.2507 21.3639 27.2334 19.3815 27.2334 16.9358V7.45547C27.2334 5.00973 25.2507 3.02737 22.8053 3.02737H7.19485C4.74942 3.02737 2.76675 5.00973 2.76675 7.45547V16.9358C2.76675 19.3815 4.74942 21.3639 7.19485 21.3639H13.9962L19.639 26.6524ZM19.7591 19.3526H19.6091V19.5026V23.868L14.8347 19.3934L14.7914 19.3529H14.7321H7.19485C5.86243 19.3529 4.77805 18.2685 4.77805 16.9361V7.45547C4.77805 6.12276 5.86242 5.03867 7.19485 5.03867H22.805C24.1374 5.03867 25.2218 6.12305 25.2218 7.45547L25.2221 16.9358C25.2221 18.2685 24.1377 19.3526 22.8053 19.3526H19.7591ZM9.23025 13.1658L9.23057 13.1661C9.51336 13.4472 9.90379 13.6103 10.3048 13.6103C10.7044 13.6103 11.0948 13.4472 11.3775 13.1661L11.3778 13.1658C11.6608 12.8828 11.8238 12.4907 11.8238 12.0912C11.8238 11.6902 11.6607 11.2996 11.3778 11.0167C11.0944 10.7332 10.7037 10.5722 10.3048 10.5722C9.90428 10.5722 9.51352 10.7331 9.23026 11.0167C8.94707 11.2999 8.78576 11.6906 8.78576 12.0912C8.78576 12.49 8.94699 12.8825 9.23025 13.1658ZM13.9259 13.1659L13.9262 13.1661C14.2089 13.4472 14.5994 13.6103 15.0004 13.6103C15.3997 13.6103 15.7919 13.4473 16.0734 13.1658C16.3563 12.8829 16.5194 12.4923 16.5194 12.0912C16.5194 11.6903 16.3564 11.2998 16.0737 11.0169C15.7917 10.733 15.3992 10.5722 15.0004 10.5722C14.5998 10.5722 14.209 10.7332 13.9258 11.0168C13.6427 11.3002 13.4813 11.6906 13.4813 12.0912C13.4813 12.4899 13.6422 12.8825 13.9259 13.1659ZM18.6218 13.1659L18.622 13.1661L18.7278 11.1228L18.6217 11.0167C18.6217 11.0167 18.6217 11.0167 18.6217 11.0168C18.3385 11.2999 18.1772 11.6906 18.1772 12.0912C18.1772 12.4918 18.3382 12.8826 18.6218 13.1659Z" fill="#F4F4F4" stroke="#F4F4F4" stroke-width="0.3"/>
</svg>
