<svg width="18" height="19" viewBox="0 0 18 19" fill="none" xmlns="http://www.w3.org/2000/svg">
<g clip-path="url(#clip0_47_164)">
<path d="M9 18.5C6.59602 18.5 4.33593 17.5638 2.63602 15.864C0.936176 14.1641 0 11.904 0 9.5C0 7.09602 0.936176 4.83593 2.63602 3.13602C4.33593 1.43618 6.59602 0.5 9 0.5C11.404 0.5 13.6641 1.43618 15.364 3.13602C17.0638 4.83593 18 7.09602 18 9.5C18 11.904 17.0638 14.1641 15.364 15.864C13.6641 17.5638 11.404 18.5 9 18.5ZM9 1.90625C6.97162 1.90625 5.06468 2.69614 3.63041 4.13041C2.19614 5.56468 1.40625 7.47162 1.40625 9.5C1.40625 11.5284 2.19614 13.4353 3.63041 14.8696C5.06468 16.3039 6.97162 17.0938 9 17.0938C11.0284 17.0938 12.9353 16.3039 14.3696 14.8696C15.8039 13.4353 16.5938 11.5284 16.5938 9.5C16.5938 7.47162 15.8039 5.56468 14.3696 4.13041C12.9353 2.69614 11.0284 1.90625 9 1.90625ZM9.70312 15.125H8.29688V13.7188C6.93991 13.7188 5.83594 12.6148 5.83594 11.2578H7.24219C7.24219 11.8394 7.71532 12.3125 8.29688 12.3125H9.70312C10.2847 12.3125 10.7578 11.8394 10.7578 11.2578C10.7578 10.6763 10.2847 10.2031 9.70312 10.2031H8.29688C6.93991 10.2031 5.83594 9.09915 5.83594 7.74219C5.83594 6.38523 6.93991 5.28125 8.29688 5.28125V3.875H9.70312V5.28125C11.0601 5.28125 12.1641 6.38523 12.1641 7.74219H10.7578C10.7578 7.16063 10.2847 6.6875 9.70312 6.6875H8.29688C7.71532 6.6875 7.24219 7.16063 7.24219 7.74219C7.24219 8.32374 7.71532 8.79688 8.29688 8.79688H9.70312C11.0601 8.79688 12.1641 9.90085 12.1641 11.2578C12.1641 12.6148 11.0601 13.7188 9.70312 13.7188V15.125Z" fill="#DE8734"/>
</g>
<defs>
<clipPath id="clip0_47_164">
<rect width="18" height="18" fill="white" transform="translate(0 0.5)"/>
</clipPath>
</defs>
</svg>
