<svg width="17" height="17" viewBox="0 0 17 17" fill="none" xmlns="http://www.w3.org/2000/svg">
<path d="M0.594257 16.9788H1.54931C1.86767 16.9788 2.14357 16.7241 2.14357 16.3845V12.0125C2.14357 11.6941 1.88889 11.4182 1.54931 11.4182H0.594257C0.275905 11.4182 0 11.6729 0 12.0125V16.4057C0 16.7241 0.254682 16.9788 0.594257 16.9788Z" fill="#DE8734"/>
<path d="M5.53933 16.9788H6.49438C6.81273 16.9788 7.08864 16.7241 7.08864 16.3845V8.19226C7.08864 7.87391 6.83396 7.598 6.49438 7.598H5.53933C5.22097 7.598 4.94507 7.85268 4.94507 8.19226V16.3845C4.94507 16.7241 5.22097 16.9788 5.53933 16.9788Z" fill="#DE8734"/>
<path d="M9.89014 4.39326V16.4057C9.89014 16.7241 10.1448 17 10.4844 17H11.4395C11.7578 17 12.0337 16.7453 12.0337 16.4057V4.39326C12.0337 4.07491 11.779 3.799 11.4395 3.799H10.4844C10.166 3.799 9.89014 4.07491 9.89014 4.39326Z" fill="#DE8734"/>
<path d="M16.3845 0H15.4295C15.1111 0 14.8352 0.254682 14.8352 0.594257V16.4057C14.8352 16.7241 15.0899 17 15.4295 17H16.3845C16.7029 17 16.9788 16.7453 16.9788 16.4057V0.594257C16.9788 0.254682 16.7241 0 16.3845 0Z" fill="#DE8734"/>
</svg>
