<svg width="18" height="19" viewBox="0 0 18 19" fill="none" xmlns="http://www.w3.org/2000/svg">
<path d="M3.88764 15.5717L3.61601 13.6523C3.57734 13.3791 3.32426 13.1884 3.05134 13.2276C2.77811 13.2662 2.58798 13.5191 2.62665 13.7923L2.68748 14.2221C2.16877 13.582 1.75574 12.8561 1.46963 12.0737C-0.555718 6.53628 4.33554 0.951509 10.0383 2.16799C10.3081 2.22542 10.5735 2.05348 10.6312 1.78362C10.6888 1.51375 10.5167 1.24832 10.2468 1.19073C3.80723 -0.183171 -1.77827 6.10287 0.531198 12.417C0.854754 13.3017 1.3216 14.123 1.9081 14.8477L1.42532 14.755C1.15426 14.703 0.892459 14.8804 0.840398 15.1513C0.788338 15.4223 0.965804 15.6842 1.23677 15.7363L3.25605 16.1242C3.61971 16.2268 3.93587 15.9119 3.88764 15.5717Z" fill="#DE8734"/>
<path d="M16.4795 6.57781C16.1559 5.69311 15.6891 4.87179 15.1026 4.14714L15.5854 4.23987C15.8562 4.29183 16.1183 4.11446 16.1703 3.8435C16.2224 3.5725 16.0449 3.31063 15.774 3.25857L13.7543 2.87057C13.3953 2.76951 13.0741 3.07758 13.1231 3.42308L13.3947 5.34251C13.43 5.59199 13.6438 5.77218 13.8888 5.77218C14.1942 5.77218 14.4265 5.50229 14.3841 5.20248L14.3233 4.77263C14.842 5.41279 15.255 6.13867 15.5411 6.92099C16.9595 10.7992 14.9645 15.1103 11.094 16.5313C9.76978 17.0174 8.34459 17.1195 6.97245 16.8268C6.70269 16.7692 6.43716 16.9413 6.37957 17.2111C6.32198 17.481 6.49408 17.7464 6.76394 17.804C8.32067 18.1362 9.93702 18.0204 11.4383 17.4693C15.8362 15.8548 18.0909 10.9834 16.4795 6.57781Z" fill="#DE8734"/>
<path d="M13.6845 9.52363C13.6845 6.66301 11.3612 4.33573 8.50533 4.33573C5.64951 4.33573 3.32613 6.66301 3.32613 9.52363C3.32613 12.3842 5.64951 14.7115 8.50533 14.7115C11.3612 14.7115 13.6845 12.3842 13.6845 9.52363ZM4.32538 9.52363C4.32538 7.214 6.2005 5.33498 8.50533 5.33498C10.8102 5.33498 12.6853 7.214 12.6853 9.52363C12.6853 11.8333 10.8102 13.7123 8.50533 13.7123C6.2005 13.7123 4.32538 11.8333 4.32538 9.52363Z" fill="#DE8734"/>
<path d="M9.00496 12.33V11.9129C9.87074 11.9129 10.4732 11.2334 10.4732 10.4685C10.4732 9.67198 9.82594 9.024 9.03044 9.024H7.98026C7.73571 9.024 7.53679 8.82429 7.53679 8.57877C7.53679 8.34182 7.72329 8.13357 7.98722 8.13357H8.9927C9.16913 8.13534 9.34373 8.21485 9.47194 8.35191C9.6604 8.55342 9.97656 8.56395 10.1781 8.37546C10.3796 8.18697 10.3901 7.8708 10.2017 7.66929C9.88829 7.33427 9.45242 7.13972 9.00496 7.13456V6.71731C9.00496 6.44138 8.78126 6.21768 8.50533 6.21768C8.22941 6.21768 8.00571 6.44138 8.00571 6.71731V7.13436C7.13993 7.13436 6.53751 7.81385 6.53751 8.5788C6.53751 9.37531 7.18473 10.0233 7.98023 10.0233H9.0304C9.27495 10.0233 9.47387 10.223 9.47387 10.4685C9.47387 10.7157 9.27439 10.9137 9.03047 10.9137C9.02814 10.9137 9.02574 10.9137 9.02341 10.9137H7.9263C7.80183 10.9124 7.66943 10.8673 7.55332 10.7866C7.32669 10.6292 7.01535 10.6852 6.8579 10.9118C6.70042 11.1384 6.75645 11.4497 6.98304 11.6072C7.32512 11.8449 7.64351 11.913 8.00567 11.913V12.33C8.00567 12.606 8.22937 12.8297 8.5053 12.8297C8.78126 12.8296 9.00496 12.6059 9.00496 12.33Z" fill="#DE8734"/>
</svg>
