<svg width="17" height="17" viewBox="0 0 17 17" fill="none" xmlns="http://www.w3.org/2000/svg">
<path d="M7.0478 12.9573L5.04465 14.9605C4.21418 15.7909 2.8693 15.7909 2.03953 14.9606C1.2096 14.1307 1.2096 12.7857 2.03937 11.9559L6.04637 7.9489C6.87614 7.1191 8.22115 7.1191 9.05092 7.9489C9.32753 8.22551 9.77604 8.22551 10.0526 7.9489C10.3293 7.67229 10.3293 7.22379 10.0526 6.94718C8.66962 5.56415 6.42767 5.56415 5.04465 6.94718L1.03767 10.9542C-0.345352 12.3372 -0.345352 14.5792 1.03767 15.9622C2.42054 17.3459 4.66265 17.3459 6.04641 15.9622L8.04956 13.959C8.32617 13.6824 8.32617 13.2339 8.04956 12.9573C7.77295 12.6807 7.32441 12.6807 7.0478 12.9573Z" fill="#DE8734"/>
<path d="M15.9624 6.04555C17.3455 4.66253 17.3455 2.42058 15.9624 1.03755C14.5794 -0.345441 12.3376 -0.345441 10.9539 1.03739L8.55036 3.4409C8.27375 3.71751 8.27375 4.16601 8.55036 4.44263C8.82697 4.71924 9.27547 4.71924 9.55208 4.44263L11.9554 2.03928C12.7858 1.20948 14.1309 1.20948 14.9607 2.03928C15.7905 2.86905 15.7905 4.21406 14.9607 5.04383L10.5535 9.45103C9.72371 10.2808 8.37873 10.2808 7.54896 9.45103C7.27235 9.17441 6.82385 9.17441 6.54724 9.45103C6.27063 9.72764 6.27063 10.1761 6.54724 10.4528C7.93026 11.8358 10.1722 11.8358 11.5552 10.4528L15.9624 6.04555Z" fill="#DE8734"/>
<path d="M13.2512 12.2494C12.9746 11.9727 12.5261 11.9727 12.2495 12.2494C11.9729 12.526 11.9729 12.9745 12.2495 13.2511L14.3738 15.3754C14.6504 15.652 15.0989 15.652 15.3755 15.3754C15.6521 15.0987 15.6521 14.6502 15.3755 14.3736L13.2512 12.2494Z" fill="#DE8734"/>
<path d="M3.75014 4.75174C4.02675 5.02836 4.47525 5.02836 4.75187 4.75174C5.02848 4.47513 5.02848 4.02663 4.75187 3.75002L2.62546 1.62361C2.34885 1.347 1.90035 1.347 1.62374 1.62361C1.34712 1.90023 1.34712 2.34873 1.62374 2.62534L3.75014 4.75174Z" fill="#DE8734"/>
<path d="M16.2916 10.6249H14.1666C13.7754 10.6249 13.4583 10.942 13.4583 11.3332C13.4583 11.7244 13.7754 12.0415 14.1666 12.0415H16.2916C16.6828 12.0415 16.9999 11.7244 16.9999 11.3332C16.9999 10.942 16.6828 10.6249 16.2916 10.6249Z" fill="#DE8734"/>
<path d="M5.66673 3.54164C6.05793 3.54164 6.37505 3.22452 6.37505 2.83332V0.708347C6.37505 0.317119 6.05793 0 5.66673 0C5.27554 0 4.95842 0.317119 4.95842 0.708314V2.83329C4.95839 3.22448 5.27554 3.54164 5.66673 3.54164Z" fill="#DE8734"/>
<path d="M0.708436 6.37493H2.83341C3.22461 6.37493 3.54173 6.05781 3.54173 5.66661C3.54173 5.27542 3.22461 4.9583 2.83341 4.9583H0.708436C0.317241 4.9583 0.00012207 5.27542 0.00012207 5.66661C0.00012207 6.05781 0.317241 6.37493 0.708436 6.37493Z" fill="#DE8734"/>
<path d="M11.3333 13.4582C10.9421 13.4582 10.625 13.7753 10.625 14.1665V16.2915C10.625 16.6826 10.9421 16.9998 11.3333 16.9998C11.7245 16.9998 12.0416 16.6826 12.0416 16.2915V14.1665C12.0417 13.7753 11.7245 13.4582 11.3333 13.4582Z" fill="#DE8734"/>
</svg>
