<svg width="16" height="16" viewBox="0 0 16 16" fill="none" xmlns="http://www.w3.org/2000/svg">
    <path
        d="M6.63319 12.1952L4.74784 14.0806C3.96622 14.8622 2.70044 14.8622 1.91947 14.0808C1.13834 13.2996 1.13834 12.0337 1.91931 11.2528L5.69066 7.48141C6.47163 6.70041 7.73753 6.70041 8.5185 7.48141C8.77884 7.74175 9.20097 7.74175 9.46131 7.48141C9.72166 7.22106 9.72166 6.79894 9.46131 6.53859C8.15963 5.23691 6.04953 5.23691 4.74784 6.53859L0.976531 10.3099C-0.325156 11.6116 -0.325156 13.7217 0.976531 15.0234C2.27806 16.3258 4.38831 16.3258 5.69069 15.0234L7.57603 13.1381C7.83637 12.8777 7.83637 12.4556 7.57603 12.1952C7.31569 11.9349 6.89353 11.9349 6.63319 12.1952Z"
        fill="currentColor" />
    <path
        d="M15.0235 5.69C16.3252 4.38831 16.3252 2.27822 15.0235 0.976531C13.7219 -0.325125 11.6119 -0.325125 10.3095 0.976375L8.04738 3.23853C7.78703 3.49888 7.78703 3.921 8.04738 4.18134C8.30772 4.44169 8.72984 4.44169 8.99019 4.18134L11.2522 1.91934C12.0337 1.13834 13.2997 1.13834 14.0807 1.91934C14.8617 2.70031 14.8617 3.96622 14.0807 4.74719L9.93272 8.89519C9.15172 9.67619 7.88584 9.67619 7.10487 8.89519C6.84453 8.63484 6.42241 8.63484 6.16206 8.89519C5.90172 9.15553 5.90172 9.57766 6.16206 9.838C7.46375 11.1397 9.57384 11.1397 10.8755 9.838L15.0235 5.69Z"
        fill="currentColor" />
    <path
        d="M12.4718 11.5289C12.2114 11.2686 11.7893 11.2686 11.5289 11.5289C11.2686 11.7893 11.2686 12.2114 11.5289 12.4718L13.5283 14.4711C13.7886 14.7314 14.2108 14.7314 14.4711 14.4711C14.7314 14.2108 14.7314 13.7886 14.4711 13.5283L12.4718 11.5289Z"
        fill="currentColor" />
    <path
        d="M3.52947 4.47228C3.78981 4.73263 4.21194 4.73263 4.47228 4.47228C4.73263 4.21194 4.73263 3.78981 4.47228 3.52947L2.47094 1.52813C2.21059 1.26778 1.78847 1.26778 1.52813 1.52813C1.26778 1.78847 1.26778 2.21059 1.52813 2.47094L3.52947 4.47228Z"
        fill="currentColor" />
    <path
        d="M15.3333 10H13.3333C12.9652 10 12.6667 10.2985 12.6667 10.6667C12.6667 11.0348 12.9652 11.3333 13.3333 11.3333H15.3333C15.7015 11.3333 16 11.0348 16 10.6667C16 10.2985 15.7015 10 15.3333 10Z"
        fill="currentColor" />
    <path
        d="M5.33334 3.33334C5.70153 3.33334 6 3.03488 6 2.66669V0.666687C6 0.298469 5.70153 0 5.33334 0C4.96516 0 4.66669 0.298469 4.66669 0.666656V2.66666C4.66666 3.03484 4.96516 3.33334 5.33334 3.33334Z"
        fill="currentColor" />
    <path
        d="M0.666656 6H2.66666C3.03484 6 3.33331 5.70153 3.33331 5.33334C3.33331 4.96516 3.03484 4.66669 2.66666 4.66669H0.666656C0.298469 4.66669 0 4.96516 0 5.33334C0 5.70153 0.298469 6 0.666656 6Z"
        fill="currentColor" />
    <path
        d="M10.6667 12.6667C10.2985 12.6667 10 12.9651 10 13.3333V15.3333C10 15.7015 10.2985 16 10.6667 16C11.0348 16 11.3333 15.7015 11.3333 15.3333V13.3333C11.3333 12.9652 11.0348 12.6667 10.6667 12.6667Z"
        fill="currentColor" />
</svg>