<svg width="17" height="21" viewBox="0 0 17 21" fill="none" xmlns="http://www.w3.org/2000/svg">
<path d="M8.3809 2.73494C6.87974 2.75586 5.46636 3.3587 4.40102 4.4324C3.33582 5.50602 2.74397 6.92408 2.73449 8.42545C2.72694 9.61903 3.08312 10.7652 3.76451 11.74C4.39471 12.6417 4.77246 13.6916 4.87434 14.8061H3.95896V16.0366H4.90338V18.5809H6.21735V18.755C6.21735 19.9929 7.22444 21 8.46228 21C9.70012 21 10.7073 19.9929 10.7073 18.755V18.5809H12.0212V16.0366H12.9656V14.8061H12.0501C12.1546 13.6996 12.5406 12.6392 13.1819 11.7086C13.8416 10.7513 14.1902 9.62875 14.1902 8.46232C14.1902 6.91727 13.5843 5.46882 12.4841 4.3838C11.3841 3.29898 9.928 2.71296 8.3809 2.73494ZM9.47683 18.755C9.47683 19.3144 9.02173 19.7695 8.46232 19.7695C7.90291 19.7695 7.44785 19.3144 7.44785 18.755V18.5809H9.47683V18.755ZM10.7908 17.3505H6.13388V16.0366H10.7908V17.3505ZM12.1687 11.0104C11.385 12.1477 10.9227 13.4491 10.8152 14.8061H6.11017C6.00489 13.4371 5.5481 12.144 4.77303 11.0351C4.23848 10.2703 3.95904 9.37056 3.96491 8.43316C3.98025 6.00337 5.96892 3.99907 8.39801 3.96524C9.61075 3.94776 10.7564 4.40808 11.6201 5.25984C12.484 6.11177 12.9597 7.24909 12.9597 8.46228C12.9598 9.37827 12.6862 10.2594 12.1687 11.0104Z" fill="#DE8734"/>
<path d="M7.84709 0H9.07756V1.64071H7.84709V0Z" fill="#DE8734"/>
<path d="M3.69819 1.44128L4.76378 0.826047L5.58413 2.2469L4.51855 2.86213L3.69819 1.44128Z" fill="#DE8734"/>
<path d="M0.826051 4.76399L1.44128 3.6984L2.86214 4.51875L2.2469 5.58434L0.826051 4.76399Z" fill="#DE8734"/>
<path d="M0 7.84705H1.64071V9.07752H0V7.84705Z" fill="#DE8734"/>
<path d="M15.2839 7.84705H16.9247V9.07752H15.2839V7.84705Z" fill="#DE8734"/>
<path d="M14.062 4.51851L15.4828 3.69816L16.098 4.76374L14.6772 5.5841L14.062 4.51851Z" fill="#DE8734"/>
<path d="M11.3402 2.24731L12.1606 0.826456L13.2261 1.44169L12.4058 2.86254L11.3402 2.24731Z" fill="#DE8734"/>
<path d="M9.25051 8.28493H7.98437C7.71309 8.28493 7.49239 8.06427 7.49239 7.79299C7.49239 7.52171 7.71309 7.30105 7.98437 7.30105H10.122V6.07059H9.07755V5.2991H7.84709V6.07654C6.96136 6.1468 6.26197 6.8895 6.26197 7.79299C6.26197 8.74274 7.03466 9.51539 7.98441 9.51539H9.25055C9.54652 9.51539 9.78728 9.75619 9.78728 10.0522C9.78728 10.3481 9.54648 10.5889 9.25055 10.5889H6.52221V11.8194H7.84713V12.5909H9.07759V11.8194H9.25055C10.225 11.8194 11.0177 11.0266 11.0177 10.0522C11.0177 9.07771 10.2249 8.28493 9.25051 8.28493Z" fill="#DE8734"/>
</svg>
