<svg width="17" height="17" viewBox="0 0 17 17" fill="none" xmlns="http://www.w3.org/2000/svg">
<path d="M9.77098 3.8726C9.3591 3.75971 8.93147 3.70247 8.5 3.70247C5.85461 3.70247 3.70245 5.85463 3.70245 8.50002C3.70245 11.1454 5.85461 13.2976 8.5 13.2976C11.1454 13.2976 13.2976 11.1454 13.2976 8.50002C13.2976 8.06854 13.2403 7.64092 13.1274 7.22904C13.0499 6.94608 13.2164 6.65382 13.4993 6.57626C13.7821 6.49873 14.0745 6.66521 14.1521 6.94817C14.2901 7.45156 14.3601 7.97368 14.3601 8.50002C14.3601 11.7312 11.7312 14.3601 8.5 14.3601C5.26877 14.3601 2.63995 11.7312 2.63995 8.50002C2.63995 5.26879 5.26877 2.63997 8.5 2.63997C9.02637 2.63997 9.54845 2.70992 10.0518 2.84792C10.2878 2.9126 10.4428 3.12662 10.4428 3.36004C10.4428 3.40649 10.4366 3.45371 10.4238 3.50069C10.3462 3.78365 10.054 3.95026 9.77098 3.8726ZM15.9912 5.72556C15.7099 5.80887 15.5493 6.10441 15.6326 6.38578C15.8349 7.0691 15.9375 7.78041 15.9375 8.50002C15.9375 12.6011 12.601 15.9375 8.5 15.9375C4.39895 15.9375 1.0625 12.6011 1.0625 8.50002C1.0625 4.39897 4.39895 1.06252 8.5 1.06252C9.21964 1.06252 9.93095 1.16508 10.6141 1.36736C10.8955 1.4507 11.191 1.29006 11.2744 1.00876C11.2892 0.95846 11.2963 0.907759 11.2963 0.857854C11.2964 0.628587 11.1468 0.416983 10.9158 0.348552C10.1346 0.117259 9.32181 1.86091e-05 8.5 1.86091e-05C6.22957 1.86091e-05 4.09501 0.884184 2.48957 2.48959C0.884166 4.09506 0 6.22959 0 8.50002C0 10.7704 0.884166 12.905 2.48957 14.5104C4.09497 16.1159 6.22957 17 8.5 17C10.7704 17 12.905 16.1159 14.5104 14.5104C16.1158 12.905 17 10.7704 17 8.50002C17 7.67827 16.8827 6.86546 16.6514 6.08416C16.5682 5.80283 16.2725 5.64239 15.9912 5.72556ZM8.5 6.37502C8.57813 6.37502 8.65702 6.37933 8.73451 6.38783C9.0263 6.41994 9.28857 6.20933 9.32051 5.91771C9.35252 5.62606 9.14205 5.36368 8.85039 5.33171C8.73451 5.31896 8.61667 5.31252 8.5 5.31252C6.74239 5.31252 5.3125 6.74241 5.3125 8.50002C5.3125 10.2576 6.74239 11.6875 8.5 11.6875C10.2576 11.6875 11.6875 10.2576 11.6875 8.50002C11.6875 8.2066 11.4497 7.96877 11.1562 7.96877C10.8628 7.96877 10.625 8.2066 10.625 8.50002C10.625 9.67176 9.67174 10.625 8.5 10.625C7.32826 10.625 6.375 9.67176 6.375 8.50002C6.375 7.32828 7.32826 6.37502 8.5 6.37502ZM11.2125 5.0363L11.4771 2.38181C11.4893 2.25969 11.5433 2.1456 11.6301 2.05884L13.5334 0.155608C13.68 0.00901665 13.8984 -0.0388955 14.093 0.0328565C14.2874 0.104608 14.4224 0.282976 14.4387 0.489665L14.5896 2.41047L16.5104 2.56134C16.717 2.57758 16.8954 2.71258 16.9672 2.90705C17.0389 3.10156 16.991 3.32003 16.8444 3.46662L14.9411 5.36986C14.8544 5.45662 14.7403 5.51067 14.6182 5.52283L11.9638 5.78759L8.87566 8.87568C8.7719 8.9794 8.63597 9.03127 8.5 9.03127C8.364 9.03127 8.2281 8.9794 8.12437 8.87564C7.91689 8.66819 7.91689 8.33181 8.12437 8.12436L11.2125 5.0363ZM12.3153 4.68478L14.324 4.48443L15.2781 3.53034L14.0539 3.43418C13.7933 3.4137 13.5864 3.20671 13.5659 2.94616L13.4697 1.72193L12.5156 2.67606L12.3153 4.68478Z" fill="#DE8734"/>
</svg>
