<svg width="26" height="26" viewBox="0 0 26 26" fill="none" xmlns="http://www.w3.org/2000/svg">
<path d="M17.639 24.6524L17.639 24.6524C17.8737 24.8723 18.1578 24.9726 18.437 24.9726C19.0391 24.9726 19.6204 24.5022 19.6204 23.7937V19.3639H20.8053C23.2507 19.3639 25.2334 17.3815 25.2334 14.9358V5.45547C25.2334 3.00973 23.2507 1.02737 20.8053 1.02737H5.19485C2.74942 1.02737 0.766748 3.00973 0.766748 5.45547V14.9358C0.766748 17.3815 2.74942 19.3639 5.19485 19.3639H11.9962L17.639 24.6524ZM17.7591 17.3526H17.6091V17.5026V21.868L12.8347 17.3934L12.7914 17.3529H12.7321H5.19485C3.86243 17.3529 2.77805 16.2685 2.77805 14.9361V5.45547C2.77805 4.12276 3.86242 3.03867 5.19485 3.03867H20.805C22.1374 3.03867 23.2218 4.12305 23.2218 5.45547L23.2221 14.9358C23.2221 16.2685 22.1377 17.3526 20.8053 17.3526H17.7591ZM7.23025 11.1658L7.23057 11.1661C7.51336 11.4472 7.90379 11.6103 8.3048 11.6103C8.70439 11.6103 9.0948 11.4472 9.37752 11.1661L9.37784 11.1658C9.66079 10.8828 9.82384 10.4907 9.82384 10.0912C9.82384 9.69019 9.66073 9.29959 9.37784 9.0167C9.09438 8.73324 8.70366 8.5722 8.3048 8.5722C7.90428 8.5722 7.51352 8.73313 7.23026 9.0167C6.94707 9.29989 6.78576 9.69061 6.78576 10.0912C6.78576 10.49 6.94699 10.8825 7.23025 11.1658ZM11.9259 11.1659L11.9262 11.1661C12.2089 11.4472 12.5994 11.6103 13.0004 11.6103C13.3997 11.6103 13.7919 11.4473 14.0734 11.1658C14.3563 10.8829 14.5194 10.4923 14.5194 10.0912C14.5194 9.69031 14.3564 9.29982 14.0737 9.01695C13.7917 8.733 13.3992 8.5722 13.0004 8.5722C12.5998 8.5722 12.209 8.73316 11.9258 9.01676C11.6427 9.30019 11.4813 9.69056 11.4813 10.0912C11.4813 10.4899 11.6422 10.8825 11.9259 11.1659ZM16.6218 11.1659L16.622 11.1661L16.7278 9.12276L16.6217 9.0167C16.6217 9.01672 16.6217 9.01674 16.6217 9.01676C16.3385 9.29995 16.1772 9.69064 16.1772 10.0912C16.1772 10.4918 16.3382 10.8826 16.6218 11.1659Z" fill="#F4F4F4" stroke="#F4F4F4" stroke-width="0.3"/>
</svg>
