<svg width="28" height="28" viewBox="0 0 28 28" fill="none" xmlns="http://www.w3.org/2000/svg">
    <g clip-path="url(#clip0_42_154)">
        <path
            d="M7.62727 23.4791C7.62727 25.7987 9.5149 27.6851 11.8333 27.6851C14.1518 27.6851 16.0392 25.7987 16.0392 23.4791C16.0392 22.9514 15.611 22.5231 15.0833 22.5231C14.5555 22.5231 14.1273 22.9514 14.1273 23.4791C14.1273 24.7444 13.0974 25.7731 11.8333 25.7731C10.5691 25.7731 9.53923 24.7444 9.53923 23.4791C9.53923 22.9514 9.11099 22.5231 8.58325 22.5231C8.05551 22.5231 7.62727 22.9514 7.62727 23.4791Z"
            fill="#F4F4F4" stroke="#F4F4F4" stroke-width="0.286957" />
        <path
            d="M10.0312 4.32696L10.0321 4.32676C10.5454 4.20856 11.0609 4.52244 11.1823 5.03833C11.3031 5.55194 10.9847 6.06678 10.4722 6.18797L10.4721 6.18798C7.84942 6.80737 6.01848 9.12826 6.01848 11.8332V14.8557C6.01848 17.5154 4.85256 20.0318 2.82311 21.7586L2.82013 21.7611L2.8201 21.7611C2.81804 21.7627 2.81581 21.7645 2.81342 21.7665C2.80572 21.7727 2.79636 21.7803 2.78583 21.7883C2.77632 21.8044 2.76848 21.8261 2.76848 21.8542C2.76848 21.9222 2.82782 21.9815 2.89577 21.9815H20.7708C20.839 21.9815 20.8983 21.9221 20.8983 21.8542C20.8983 21.8247 20.8902 21.8037 20.8806 21.7886C20.8681 21.7791 20.8556 21.769 20.843 21.7581C20.8428 21.7579 20.8427 21.7578 20.8425 21.7576L20.9366 21.6493C19.966 20.8217 19.1999 19.823 18.6606 18.68L10.0312 4.32696ZM10.0312 4.32696C6.54286 5.15165 4.10652 8.23869 4.10652 11.8332V14.8557C4.10652 16.9191 3.21728 18.8733 1.66269 20.2336C1.63056 20.2549 1.59904 20.2786 1.569 20.3048C1.1162 20.6929 0.856522 21.2578 0.856522 21.8542C0.856522 22.9788 1.77115 23.8935 2.89577 23.8935H20.7708C21.8956 23.8935 22.8102 22.9788 22.8102 21.8542C22.8102 21.2577 22.5505 20.6927 22.0951 20.3046C22.0661 20.2794 22.0338 20.2565 22.0074 20.2382C21.2645 19.5871 20.6774 18.8095 20.2581 17.9241L20.1285 17.9855L20.2581 17.9241C20.0327 17.448 19.4678 17.2412 18.9861 17.4679L18.9857 17.4681C18.5083 17.6947 18.3041 18.2641 18.5308 18.7412L10.0312 4.32696Z"
            fill="#F4F4F4" stroke="#F4F4F4" stroke-width="0.286957" />
        <path
            d="M19.9583 15.0833C16.0757 15.0833 12.9167 11.9243 12.9167 8.04173C12.9167 4.15895 16.0757 1 19.9583 1C23.8411 1 27 4.15895 27 8.04173C27 11.9243 23.8411 15.0833 19.9583 15.0833ZM19.9583 2.625C16.9715 2.625 14.5417 5.05496 14.5417 8.04173C14.5417 11.0285 16.9715 13.4583 19.9583 13.4583C22.9451 13.4583 25.375 11.0285 25.375 8.04173C25.375 5.05496 22.9451 2.625 19.9583 2.625Z"
            fill="#DE8734" />
        <path
            d="M20.2292 11.2917C19.7807 11.2917 19.4167 10.9277 19.4167 10.4792V6.95825H18.875C18.4265 6.95825 18.0625 6.59425 18.0625 6.14575C18.0625 5.69725 18.4265 5.33325 18.875 5.33325H20.2292C20.6777 5.33325 21.0417 5.69725 21.0417 6.14575V10.4792C21.0417 10.9277 20.6777 11.2917 20.2292 11.2917Z"
            fill="#DE8734" />
    </g>
    <defs>
        <clipPath id="clip0_42_154">
            <rect width="27.913" height="28" fill="white" transform="translate(0.043457)" />
        </clipPath>
    </defs>
</svg>