<svg width="18" height="18" viewBox="0 0 18 18" fill="none" xmlns="http://www.w3.org/2000/svg">
<path fill-rule="evenodd" clip-rule="evenodd" d="M5.9483 1.63177C4.84407 1.39015 3.55292 1.719 2.63631 2.63561C1.719 3.55292 1.39015 4.84408 1.63177 5.94831C0.680535 6.55754 0 7.70262 0 9C0 10.2967 0.68054 11.4425 1.63246 12.0517C1.39016 13.1559 1.719 14.4471 2.63631 15.3637C3.55292 16.281 4.84407 16.6098 5.9483 16.3675C6.55754 17.3195 7.70331 18 9 18C10.2967 18 11.4425 17.3195 12.0524 16.3675C13.1559 16.6098 14.4471 16.281 15.3637 15.3637C16.281 14.4471 16.6098 13.1559 16.3682 12.0517C17.3195 11.4425 18 10.2967 18 9C18 7.70262 17.3195 6.55754 16.3675 5.94762C16.6098 4.84408 16.281 3.55292 15.3637 2.63561C14.4471 1.719 13.1559 1.39015 12.0517 1.63177C11.4425 0.679845 10.2967 0 9 0C7.70331 0 6.55754 0.679845 5.9483 1.63177ZM6.003 3.10223C6.17954 3.18531 6.38239 3.19015 6.56239 3.11538C6.74239 3.04062 6.88293 2.89385 6.94869 2.71039C7.22354 1.94954 8.05569 1.38462 9 1.38462C9.94431 1.38462 10.7765 1.94954 11.0513 2.71039C11.1171 2.89385 11.2576 3.04062 11.4376 3.11538C11.6176 3.19015 11.8205 3.18531 11.997 3.10223C12.7295 2.75815 13.7174 2.94715 14.3848 3.61454C15.0528 4.28262 15.2418 5.27054 14.8978 6.003C14.8147 6.17885 14.8098 6.38239 14.8846 6.56239C14.9587 6.74239 15.1062 6.88292 15.2896 6.94869C16.0505 7.22285 16.6154 8.05569 16.6154 9C16.6154 9.94431 16.0505 10.7765 15.2896 11.0506C15.1062 11.1171 14.9587 11.2569 14.8846 11.4369C14.8098 11.6169 14.8147 11.8205 14.8978 11.997C15.2418 12.7288 15.0528 13.7167 14.3848 14.3848C13.7174 15.0522 12.7295 15.2418 11.997 14.8971C11.8205 14.8147 11.6176 14.8098 11.4376 14.8839C11.2576 14.9587 11.1171 15.1055 11.0513 15.2889C10.7765 16.0505 9.94431 16.6154 9 16.6154C8.05569 16.6154 7.22354 16.0505 6.94869 15.2889C6.88293 15.1055 6.74239 14.9587 6.56239 14.8839C6.38239 14.8098 6.17954 14.8147 6.003 14.8971C5.27054 15.2418 4.28262 15.0522 3.61523 14.3848C2.94715 13.7167 2.75816 12.7288 3.10223 11.997C3.18531 11.8205 3.19015 11.6169 3.11538 11.4369C3.04131 11.2569 2.89384 11.1171 2.71038 11.0506C1.94953 10.7765 1.38462 9.94431 1.38462 9C1.38462 8.05569 1.94953 7.22285 2.71038 6.94869C2.89384 6.88292 3.04131 6.74239 3.11538 6.56239C3.19015 6.38239 3.18531 6.17885 3.10223 6.003C2.75816 5.27054 2.94715 4.28262 3.61523 3.61454C4.28262 2.94715 5.27054 2.75815 6.003 3.10223ZM9.96301 5.93031L6.83654 11.3469C6.64546 11.6778 6.759 12.1015 7.08992 12.2926C7.42084 12.4837 7.84453 12.3702 8.03561 12.0392L11.1621 6.62262C11.3532 6.29239 11.2396 5.868 10.9087 5.67692C10.5778 5.48585 10.1541 5.60008 9.96301 5.93031ZM11.4985 9.297C12.2365 9.09969 12.9967 9.53792 13.1947 10.2766C13.392 11.0146 12.9538 11.7741 12.2151 11.9721C11.4771 12.1701 10.7176 11.7312 10.5196 10.9932C10.3216 10.2552 10.7605 9.495 11.4985 9.297ZM5.77523 5.99262C6.51323 5.79531 7.27339 6.23354 7.47139 6.97223C7.6687 7.71023 7.23046 8.46969 6.49177 8.66769C5.75377 8.86569 4.9943 8.42677 4.7963 7.68877C4.5983 6.95077 5.03723 6.19062 5.77523 5.99262Z" fill="#DE8734"/>
</svg>
