<svg width="12" height="13" viewBox="0 0 12 13" fill="none" xmlns="http://www.w3.org/2000/svg">
<path d="M5.99998 0.5C5.37889 0.5 4.87534 1.00409 4.87534 1.62517V5.37509H1.12515C0.504064 5.37509 0.000244141 5.87864 0.000244141 6.5C0.000244141 7.12136 0.504064 7.62517 1.12515 7.62517H4.87534V11.3754C4.87534 11.9959 5.37889 12.5 5.99998 12.5C6.6216 12.5 7.12515 11.9962 7.12515 11.3754V7.62517H10.8751C11.4964 7.62517 12 7.12162 12 6.5C12 5.87864 11.4964 5.37509 10.8751 5.37509H7.12515V1.62517C7.12515 1.00409 6.6216 0.5 5.99998 0.5Z" fill="#4D4D4D"/>
</svg>
