<svg width="16" height="18" viewBox="0 0 16 18" fill="none" xmlns="http://www.w3.org/2000/svg">
<path d="M14.8848 5.21137H10.1822L11.5411 4.58651C13.1237 3.85928 13.3738 1.69157 12.1061 0.582613C10.8116 -0.549442 8.77049 0.0508734 8.29969 1.70908L7.71231 3.775L7.12529 1.70908C6.65676 0.060675 4.63431 -0.521406 3.37905 0.523875C2.11856 1.57323 2.19499 3.81064 3.88354 4.58651L5.2428 5.21137H0.540532C0.242158 5.21137 0 5.45353 0 5.7519V8.99113C0 9.28987 0.242158 9.53166 0.540532 9.53166H1.09079V17.4595C1.09079 17.7582 1.33295 18 1.63133 18C1.90721 18 13.5364 18 13.794 18C14.0924 18 14.3346 17.7582 14.3346 17.4595V9.53166H14.8848C15.1832 9.53166 15.4253 9.28987 15.4253 8.99113V5.7519C15.4253 5.45353 15.1832 5.21137 14.8848 5.21137ZM4.07093 1.35449C4.71553 0.817816 5.82676 1.0937 6.08531 2.00493L6.87124 4.7703L4.33507 3.60455C3.3767 3.16322 3.41825 1.89791 4.07093 1.35449ZM11.3944 1.39629C12.0556 1.97463 11.9793 3.19479 11.0896 3.60455L8.55338 4.7703L9.33931 2.00493C9.59791 1.09442 10.7066 0.79533 11.3944 1.39629ZM1.08106 6.29243H5.56099V8.4506H1.08106V6.29243ZM6.64206 6.29243H8.78329C8.78329 6.508 8.78329 16.3715 8.78329 16.9189H6.64206C6.64206 16.6829 6.64206 6.38645 6.64206 6.29243ZM14.3443 8.4506H9.86435V6.29243H14.3443V8.4506ZM2.17186 9.54139H5.56099V16.9189H2.17186V9.54139ZM13.2535 16.9189H9.86435V9.54139H13.2535V16.9189Z" fill="#DE8734"/>
</svg>
