<svg width="18" height="19" viewBox="0 0 18 19" fill="none" xmlns="http://www.w3.org/2000/svg">
<g clip-path="url(#clip0_136_1317)">
<path d="M10.3185 10.7889V10.9389H10.3184H5.77282L1.13545 15.5763L1.13361 15.5781L1.13359 15.5781C0.990741 15.7161 0.799418 15.7924 0.600828 15.7907C0.402237 15.789 0.21227 15.7093 0.0718398 15.5689C-0.0685896 15.4285 -0.148246 15.2385 -0.149971 15.0399C-0.151697 14.8413 -0.0753547 14.65 0.062614 14.5071L0.0644249 14.5053L0.064441 14.5053L4.9237 9.64601C4.92371 9.64601 4.92371 9.646 4.92372 9.646C5.06572 9.50396 5.25834 9.42414 5.45919 9.42409H5.45922H10.0043L14.5636 4.86482L15.6352 5.93586V5.72371L10.7479 10.6116C10.634 10.7252 10.4795 10.789 10.3185 10.7889ZM10.3185 10.7889H5.71069L1.02938 15.4702C0.914825 15.5809 0.761392 15.6421 0.602131 15.6407C0.442871 15.6393 0.290525 15.5754 0.177906 15.4628C0.0652875 15.3502 0.00140689 15.1979 2.29617e-05 15.0386C-0.00136097 14.8793 0.0598624 14.7259 0.170507 14.6113M10.3185 10.7889L0.170507 14.6113M0.170507 14.6113L5.02978 9.75206L0.170507 14.6113Z" fill="#DE8734" stroke="#DE8734" stroke-width="0.3"/>
</g>
<defs>
<clipPath id="clip0_136_1317">
<rect width="18" height="18" fill="white" transform="translate(0 0.5)"/>
</clipPath>
</defs>
</svg>
