<svg width="17" height="17" viewBox="0 0 17 17" fill="none" xmlns="http://www.w3.org/2000/svg">
<path d="M4.64844 13.0156H3.32031C2.95355 13.0156 2.65625 12.7183 2.65625 12.3516C2.65625 11.9848 2.95355 11.6875 3.32031 11.6875H4.64844C5.0152 11.6875 5.3125 11.9848 5.3125 12.3516C5.3125 12.7183 5.0152 13.0156 4.64844 13.0156Z" fill="#DE8734"/>
<path d="M4.64844 10.3594H3.32031C2.95355 10.3594 2.65625 10.0621 2.65625 9.69531C2.65625 9.32855 2.95355 9.03125 3.32031 9.03125H4.64844C5.0152 9.03125 5.3125 9.32855 5.3125 9.69531C5.3125 10.0621 5.0152 10.3594 4.64844 10.3594Z" fill="#DE8734"/>
<path d="M7.30469 7.70312H3.32031C2.95355 7.70312 2.65625 7.40582 2.65625 7.03906C2.65625 6.6723 2.95355 6.375 3.32031 6.375H7.30469C7.67145 6.375 7.96875 6.6723 7.96875 7.03906C7.96875 7.40582 7.67145 7.70312 7.30469 7.70312Z" fill="#DE8734"/>
<path d="M16.4165 3.69547C15.6398 2.91875 14.3759 2.91875 13.5991 3.69547L8.04478 9.24983C7.76575 9.52886 7.57735 9.88085 7.49995 10.2678L7.10925 12.2213C7.06572 12.439 7.13386 12.6641 7.29087 12.8211C7.44577 12.976 7.66999 13.0468 7.89066 13.0027L9.84416 12.612C10.2311 12.5346 10.5831 12.3462 10.8621 12.0672L16.4165 6.51283C17.1932 5.73611 17.1932 4.47223 16.4165 3.69547ZM15.4774 5.57374L9.92302 11.1281C9.83002 11.2211 9.71271 11.2839 9.58375 11.3097C9.58372 11.3097 9.58378 11.3097 9.58375 11.3097L8.60695 11.505L8.80231 10.5283C8.82811 10.3994 8.8909 10.282 8.9839 10.189L14.5383 4.63463C14.7972 4.37571 15.2185 4.37571 15.4774 4.63463C15.7369 4.89411 15.7369 5.31419 15.4774 5.57374Z" fill="#DE8734"/>
<path d="M11.2891 13.5312C10.9223 13.5312 10.625 13.8285 10.625 14.1953V15.0078C10.625 15.374 10.3271 15.6719 9.96094 15.6719H1.99219C1.62602 15.6719 1.32812 15.374 1.32812 15.0078V3.32031C1.32812 2.95415 1.62602 2.65625 1.99219 2.65625H2.65625V3.32031C2.65625 3.68707 2.95355 3.98438 3.32031 3.98438C3.68707 3.98438 3.98438 3.68707 3.98438 3.32031V2.65625H5.3125V3.32031C5.3125 3.68707 5.6098 3.98438 5.97656 3.98438C6.34332 3.98438 6.64062 3.68707 6.64062 3.32031V2.65625H7.96875V3.32031C7.96875 3.68707 8.26605 3.98438 8.63281 3.98438C8.99957 3.98438 9.29688 3.68707 9.29688 3.32031V2.65625H9.96094C10.3271 2.65625 10.625 2.95415 10.625 3.32031V3.45442C10.625 3.82118 10.9223 4.11848 11.2891 4.11848C11.6558 4.11848 11.9531 3.82118 11.9531 3.45442V3.32031C11.9531 2.22182 11.0594 1.32812 9.96094 1.32812H9.29688V0.664062C9.29688 0.297301 8.99957 0 8.63281 0C8.26605 0 7.96875 0.297301 7.96875 0.664062V1.32812H6.64062V0.664062C6.64062 0.297301 6.34332 0 5.97656 0C5.6098 0 5.3125 0.297301 5.3125 0.664062V1.32812H3.98438V0.664062C3.98438 0.297301 3.68707 0 3.32031 0C2.95355 0 2.65625 0.297301 2.65625 0.664062V1.32812H1.99219C0.893695 1.32812 0 2.22182 0 3.32031V15.0078C0 16.1063 0.893695 17 1.99219 17H9.96094C11.0594 17 11.9531 16.1063 11.9531 15.0078V14.1953C11.9531 13.8285 11.6558 13.5312 11.2891 13.5312Z" fill="#DE8734"/>
</svg>
