<svg width="27" height="27" viewBox="0 0 27 27" fill="none" xmlns="http://www.w3.org/2000/svg">
<path d="M7.62727 22.4791C7.62727 24.7987 9.5149 26.6851 11.8333 26.6851C14.1518 26.6851 16.0392 24.7987 16.0392 22.4791C16.0392 21.9514 15.611 21.5231 15.0833 21.5231C14.5555 21.5231 14.1273 21.9514 14.1273 22.4791C14.1273 23.7444 13.0974 24.7731 11.8333 24.7731C10.5691 24.7731 9.53923 23.7444 9.53923 22.4791C9.53923 21.9514 9.11099 21.5231 8.58325 21.5231C8.05551 21.5231 7.62727 21.9514 7.62727 22.4791Z" fill="#F4F4F4" stroke="#F4F4F4" stroke-width="0.286957"/>
<path d="M10.0312 3.32696L10.0321 3.32676C10.5454 3.20856 11.0609 3.52244 11.1823 4.03833C11.3031 4.55194 10.9847 5.06678 10.4722 5.18797L10.4721 5.18798C7.84942 5.80737 6.01848 8.12826 6.01848 10.8332V13.8557C6.01848 16.5154 4.85256 19.0318 2.82311 20.7586L2.82013 20.7611L2.8201 20.7611C2.81804 20.7627 2.81581 20.7645 2.81342 20.7665C2.80572 20.7727 2.79636 20.7803 2.78583 20.7883C2.77632 20.8044 2.76848 20.8261 2.76848 20.8542C2.76848 20.9222 2.82782 20.9815 2.89577 20.9815H20.7708C20.839 20.9815 20.8983 20.9221 20.8983 20.8542C20.8983 20.8247 20.8902 20.8037 20.8806 20.7886C20.8681 20.7791 20.8556 20.769 20.843 20.7581C20.8428 20.7579 20.8427 20.7578 20.8425 20.7576L20.9366 20.6493C19.966 19.8217 19.1999 18.823 18.6606 17.68L10.0312 3.32696ZM10.0312 3.32696C6.54286 4.15165 4.10652 7.23869 4.10652 10.8332V13.8557C4.10652 15.9191 3.21728 17.8733 1.66269 19.2336C1.63056 19.2549 1.59904 19.2786 1.569 19.3048C1.1162 19.6929 0.856522 20.2578 0.856522 20.8542C0.856522 21.9788 1.77115 22.8935 2.89577 22.8935H20.7708C21.8956 22.8935 22.8102 21.9788 22.8102 20.8542C22.8102 20.2577 22.5505 19.6927 22.0951 19.3046C22.0661 19.2794 22.0338 19.2565 22.0074 19.2382C21.2645 18.5871 20.6774 17.8095 20.2581 16.9241L20.1285 16.9855L20.2581 16.9241C20.0327 16.448 19.4678 16.2412 18.9861 16.4679L18.9857 16.4681C18.5083 16.6947 18.3041 17.2641 18.5308 17.7412L10.0312 3.32696Z" fill="#F4F4F4" stroke="#F4F4F4" stroke-width="0.286957"/>
<path d="M19.9583 14.0833C16.0757 14.0833 12.9167 10.9243 12.9167 7.04173C12.9167 3.15895 16.0757 0 19.9583 0C23.8411 0 27 3.15895 27 7.04173C27 10.9243 23.8411 14.0833 19.9583 14.0833ZM19.9583 1.625C16.9715 1.625 14.5417 4.05496 14.5417 7.04173C14.5417 10.0285 16.9715 12.4583 19.9583 12.4583C22.9451 12.4583 25.375 10.0285 25.375 7.04173C25.375 4.05496 22.9451 1.625 19.9583 1.625Z" fill="#DE8734"/>
<path d="M20.2292 10.2917C19.7807 10.2917 19.4167 9.92772 19.4167 9.47922V5.95825H18.875C18.4265 5.95825 18.0625 5.59425 18.0625 5.14575C18.0625 4.69725 18.4265 4.33325 18.875 4.33325H20.2292C20.6777 4.33325 21.0417 4.69725 21.0417 5.14575V9.47922C21.0417 9.92772 20.6777 10.2917 20.2292 10.2917Z" fill="#DE8734"/>
</svg>
