<svg width="18" height="18" viewBox="0 0 18 18" fill="none" xmlns="http://www.w3.org/2000/svg">
<g clip-path="url(#clip0_49_447)">
<path d="M4.6 16.5H1C0.75 16.5 0.5 16.25 0.5 16V12.35C0.5 12.05 0.75 11.85 1 11.85H4.5V16C4.5 16.15 4.55 16.35 4.6 16.5Z" fill="#DE8734"/>
<path d="M11.5 10V16C11.5 16.25 11.25 16.5 11 16.5H6C5.75 16.5 5.5 16.25 5.5 16V10C5.5 9.7 5.75 9.5 6 9.5H11C11.25 9.5 11.5 9.7 11.5 10Z" fill="#DE8734"/>
<path d="M16.4999 13V16C16.4999 16.25 16.2499 16.5 15.9999 16.5H12.3999C12.4499 16.35 12.4999 16.15 12.4999 16V12.5H15.9999C16.2499 12.5 16.4999 12.7 16.4999 13Z" fill="#DE8734"/>
<path d="M12.5499 3.99999L10.8999 5.59999L11.2999 7.89999C11.3499 8.09999 11.2499 8.29999 11.0999 8.39999C10.9499 8.49999 10.6999 8.49999 10.5499 8.44999L8.49994 7.34999L6.44994 8.39999C6.29994 8.49999 6.09994 8.49999 5.94994 8.34999C5.79994 8.24999 5.69994 8.04999 5.74994 7.84999L6.14994 5.54999L4.44994 3.99999C4.34994 3.89999 4.29994 3.69999 4.34994 3.49999C4.39994 3.29999 4.54994 3.19999 4.74994 3.14999L7.04994 2.79999L8.04994 0.749988C8.19994 0.399988 8.79994 0.399988 8.94994 0.749988L9.94994 2.79999L12.2499 3.14999C12.4499 3.19999 12.5999 3.29999 12.6499 3.49999C12.6999 3.69999 12.6499 3.89999 12.5499 3.99999Z" fill="#DE8734"/>
</g>
<defs>
<clipPath id="clip0_49_447">
<rect width="17" height="17" fill="white"/>
</clipPath>
</defs>
</svg>
