<svg width="18" height="18" viewBox="0 0 18 18" fill="none" xmlns="http://www.w3.org/2000/svg">
<path d="M8.73437 12.9531C9.10116 12.9531 9.39843 13.2504 9.39843 13.6172C9.39843 13.984 9.10116 14.2813 8.73437 14.2813H7.80468C7.43789 14.2813 7.14062 13.984 7.14062 13.6172C7.14062 13.2504 7.43789 12.9531 7.80468 12.9531H8.73437ZM14.1797 9.4004C14.1797 9.03361 13.8824 8.73634 13.5156 8.73634H7.80468C7.43789 8.73634 7.14062 9.03361 7.14062 9.4004C7.14062 9.76719 7.43789 10.0645 7.80468 10.0645H13.5156C13.8824 10.0645 14.1797 9.76719 14.1797 9.4004ZM7.80468 6.08009H13.5156C13.8824 6.08009 14.1797 5.78282 14.1797 5.41603C14.1797 5.04924 13.8824 4.75196 13.5156 4.75196H7.80468C7.43789 4.75196 7.14062 5.04924 7.14062 5.41603C7.14062 5.78282 7.43789 6.08009 7.80468 6.08009ZM5.14843 12.9531H4.48437C4.11758 12.9531 3.82031 13.2504 3.82031 13.6172C3.82031 13.984 4.11758 14.2813 4.48437 14.2813H5.14843C5.51522 14.2813 5.81249 13.984 5.81249 13.6172C5.81249 13.2504 5.51522 12.9531 5.14843 12.9531ZM5.14843 8.73634H4.48437C4.11758 8.73634 3.82031 9.03361 3.82031 9.4004C3.82031 9.76719 4.11758 10.0645 4.48437 10.0645H5.14843C5.51522 10.0645 5.81249 9.76719 5.81249 9.4004C5.81249 9.03361 5.51522 8.73634 5.14843 8.73634ZM5.14843 4.75196H4.48437C4.11758 4.75196 3.82031 5.04924 3.82031 5.41603C3.82031 5.78282 4.11758 6.08009 4.48437 6.08009H5.14843C5.51522 6.08009 5.81249 5.78282 5.81249 5.41603C5.81249 5.04924 5.51522 4.75196 5.14843 4.75196ZM17.3056 16.8663C17.5648 17.1257 17.5648 17.5462 17.3056 17.8054C17.1759 17.9351 17.0058 18 16.8359 18C16.666 18 16.496 17.9351 16.3663 17.8056L15.243 16.6823C14.7956 16.9496 14.2729 17.1035 13.7148 17.1035C12.0671 17.1035 10.7266 15.7629 10.7266 14.1152C10.7266 12.4675 12.0671 11.127 13.7148 11.127C15.3625 11.127 16.7031 12.4675 16.7031 14.1152C16.7031 14.725 16.5195 15.2924 16.2047 15.7657L17.3056 16.8663ZM13.7148 15.7754C14.6302 15.7754 15.375 15.0307 15.375 14.1152C15.375 13.1998 14.6302 12.4551 13.7148 12.4551C12.7994 12.4551 12.0547 13.1998 12.0547 14.1152C12.0547 15.0307 12.7994 15.7754 13.7148 15.7754ZM14.8437 1.00002H3.15625C1.69155 1.00002 0.5 2.19157 0.5 3.65626V15.3438C0.5 16.8084 1.69155 18 3.15625 18H9.99608C10.3629 18 10.6601 17.7027 10.6601 17.3359C10.6601 16.9691 10.3629 16.6719 9.99608 16.6719H3.15625C2.42396 16.6719 1.82812 16.076 1.82812 15.3438V3.65626C1.82812 2.92398 2.42396 2.32814 3.15625 2.32814H14.8437C15.576 2.32814 16.1719 2.92398 16.1719 3.65626V10.2305C16.1719 10.5973 16.4691 10.8945 16.8359 10.8945C17.2027 10.8945 17.5 10.5973 17.5 10.2305V3.65626C17.5 2.19157 16.3084 1.00002 14.8437 1.00002Z" fill="#DE8734"/>
</svg>
