<svg width="10" height="14" viewBox="0 0 10 14" fill="none" xmlns="http://www.w3.org/2000/svg">
    <path
        d="M5.09995 11.2H0.899951C0.479951 11.2 0.199951 10.92 0.199951 10.5C0.199951 10.08 0.479951 9.8 0.899951 9.8H5.09995C5.51995 9.8 5.79995 10.08 5.79995 10.5C5.79995 10.92 5.51995 11.2 5.09995 11.2Z"
        fill="currentColor" />
    <path
        d="M2.99995 13.3C2.57995 13.3 2.29995 13.02 2.29995 12.6V8.4C2.29995 7.98 2.57995 7.7 2.99995 7.7C3.41995 7.7 3.69995 7.98 3.69995 8.4V12.6C3.69995 13.02 3.41995 13.3 2.99995 13.3Z"
        fill="currentColor" />
    <path
        d="M8.59995 14H7.19995C6.77995 14 6.49995 13.72 6.49995 13.3C6.49995 12.88 6.77995 12.6 7.19995 12.6H8.59995V1.4H5.79995V6.3C5.79995 6.72 5.51995 7 5.09995 7C4.67995 7 4.39995 6.72 4.39995 6.3V1.4C4.39995 0.63 5.02995 0 5.79995 0H8.59995C9.36995 0 9.99995 0.63 9.99995 1.4V12.6C9.99995 13.37 9.36995 14 8.59995 14Z"
        fill="currentColor" />
</svg>