<svg width="15" height="14" viewBox="0 0 15 14" fill="none" xmlns="http://www.w3.org/2000/svg">
    <path
        d="M5.90344 13.6122C5.7659 13.6122 5.63399 13.5576 5.53674 13.4603C5.43948 13.363 5.38484 13.2311 5.38484 13.0936V8.10723L0.577387 2.82007C0.388142 2.61152 0.263496 2.35254 0.218577 2.07453C0.173658 1.79653 0.210398 1.51146 0.324337 1.25393C0.438276 0.996405 0.624515 0.777483 0.860452 0.623739C1.09639 0.469995 1.37188 0.388039 1.65349 0.387817H12.7464C13.028 0.388039 13.3035 0.469995 13.5395 0.623739C13.7754 0.777483 13.9616 0.996405 14.0756 1.25393C14.1895 1.51146 14.2262 1.79653 14.1813 2.07453C14.1364 2.35254 14.0118 2.61152 13.8225 2.82007L9.01506 8.10723V11.0192C9.01501 11.0969 8.99751 11.1736 8.96385 11.2436C8.93019 11.3136 8.88123 11.3751 8.82059 11.4237L6.22757 13.4981C6.13563 13.5719 6.02131 13.6121 5.90344 13.6122ZM1.65349 1.42502C1.57279 1.42523 1.49388 1.44881 1.4263 1.49293C1.35873 1.53705 1.30539 1.5998 1.27275 1.6736C1.2401 1.7474 1.22954 1.82909 1.24235 1.90876C1.25516 1.98844 1.29079 2.0627 1.34492 2.12255L6.28721 7.56788C6.37188 7.66099 6.41981 7.78173 6.42205 7.90757V12.0149L7.97786 10.7599V7.90757C7.97755 7.77814 8.02564 7.65328 8.11269 7.55751L13.055 2.11217C13.1059 2.05206 13.1388 1.97876 13.1498 1.90076C13.1608 1.82275 13.1495 1.74323 13.1172 1.67136C13.085 1.5995 13.033 1.53823 12.9674 1.49464C12.9018 1.45105 12.8252 1.42691 12.7464 1.42502H1.65349Z"
        fill="#B9B9B9" />
</svg>