<svg width="18" height="18" viewBox="0 0 18 18" fill="none" xmlns="http://www.w3.org/2000/svg">
<path d="M11.4019 7.2C11.4019 6.72496 11.261 6.26058 10.9971 5.86559C10.7332 5.47061 10.358 5.16275 9.91916 4.98096C9.48028 4.79917 8.99734 4.7516 8.53142 4.84428C8.0655 4.93696 7.63753 5.16571 7.30162 5.50162C6.96571 5.83753 6.73696 6.2655 6.64428 6.73142C6.5516 7.19734 6.59917 7.68028 6.78096 8.11916C6.96275 8.55805 7.27061 8.93317 7.66559 9.19709C8.06058 9.46101 8.52496 9.60188 9 9.60188C9.63702 9.60188 10.2479 9.34883 10.6984 8.89839C11.1488 8.44795 11.4019 7.83702 11.4019 7.2ZM7.80188 7.2C7.80188 6.96304 7.87215 6.73139 8.0038 6.53436C8.13545 6.33733 8.32257 6.18376 8.5415 6.09308C8.76043 6.0024 9.00133 5.97867 9.23375 6.0249C9.46616 6.07113 9.67965 6.18524 9.84721 6.3528C10.0148 6.52036 10.1289 6.73385 10.1751 6.96626C10.2213 7.19868 10.1976 7.43958 10.1069 7.65851C10.0162 7.87744 9.86268 8.06456 9.66565 8.19621C9.46862 8.32786 9.23697 8.39813 9 8.39813C8.6827 8.39665 8.37881 8.26994 8.15444 8.04557C7.93006 7.8212 7.80336 7.51731 7.80188 7.2Z" fill="#DE8734"/>
<path d="M6.06938 11.4919C6.02859 11.562 6.00238 11.6396 5.99232 11.72C5.98226 11.8005 5.98857 11.8822 6.01087 11.9601C6.03316 12.0381 6.07098 12.1107 6.12205 12.1737C6.17312 12.2367 6.23639 12.2887 6.30807 12.3267C6.37975 12.3646 6.45835 12.3876 6.53915 12.3944C6.61996 12.4012 6.7013 12.3916 6.7783 12.3662C6.8553 12.3407 6.92636 12.3 6.98723 12.2464C7.0481 12.1929 7.09751 12.1275 7.1325 12.0544C7.23297 11.8591 7.38541 11.6954 7.57299 11.5813C7.76058 11.4671 7.97604 11.407 8.19563 11.4075H9.79875C10.0183 11.407 10.2338 11.4671 10.4214 11.5813C10.609 11.6954 10.7614 11.8591 10.8619 12.0544C10.9362 12.1949 11.0626 12.3007 11.2141 12.3491C11.3655 12.3975 11.5299 12.3846 11.6719 12.3131C11.8135 12.2399 11.9203 12.1135 11.9688 11.9616C12.0173 11.8098 12.0036 11.6449 11.9306 11.5031C11.7288 11.1122 11.4229 10.7845 11.0467 10.5563C10.6706 10.328 10.2387 10.208 9.79875 10.2094H8.19563C7.75775 10.2079 7.32789 10.3268 6.95293 10.5529C6.57798 10.7791 6.27235 11.1039 6.06938 11.4919Z" fill="#DE8734"/>
<path d="M15.5981 13.2019C15.172 13.2038 14.7543 13.3204 14.3888 13.5394L13.6463 12.7969C14.299 11.9986 14.7351 11.0457 14.9124 10.0299C15.0897 9.01407 15.0024 7.96972 14.6588 6.9975C14.6407 6.91386 14.6051 6.83503 14.5541 6.76625C14.5032 6.69748 14.4382 6.64036 14.3635 6.59869C14.2888 6.55702 14.206 6.53176 14.1208 6.5246C14.0355 6.51744 13.9497 6.52854 13.869 6.55717C13.7884 6.5858 13.7148 6.63128 13.6531 6.6906C13.5915 6.74992 13.5432 6.82171 13.5114 6.90117C13.4797 6.98064 13.4653 7.06596 13.4691 7.15143C13.473 7.23691 13.495 7.32059 13.5338 7.39688C13.8287 8.2516 13.8764 9.17221 13.6714 10.0528C13.4664 10.9335 13.0171 11.7384 12.375 12.375C11.4767 13.264 10.2639 13.7626 9 13.7626C7.73615 13.7626 6.52334 13.264 5.625 12.375C5.56905 12.3185 5.50246 12.2737 5.42908 12.2431C5.35571 12.2125 5.277 12.1968 5.1975 12.1968C5.11801 12.1968 5.0393 12.2125 4.96593 12.2431C4.89255 12.2737 4.82596 12.3185 4.77 12.375L3.645 13.5C3.27948 13.281 2.86174 13.1644 2.43563 13.1625C1.96058 13.1625 1.49621 13.3034 1.10122 13.5673C0.706233 13.8312 0.398378 14.2063 0.216586 14.6452C0.0347939 15.0841 -0.0127712 15.567 0.0799057 16.033C0.172583 16.4989 0.401339 16.9269 0.737247 17.2628C1.07316 17.5987 1.50113 17.8274 1.96705 17.9201C2.43296 18.0128 2.9159 17.9652 3.35479 17.7834C3.79367 17.6016 4.16879 17.2938 4.43272 16.8988C4.69664 16.5038 4.8375 16.0394 4.8375 15.5644C4.83559 15.1383 4.71901 14.7205 4.5 14.355L5.2425 13.6125C6.31378 14.4889 7.65527 14.9678 9.03938 14.9678C10.4235 14.9678 11.765 14.4889 12.8363 13.6125L13.5788 14.355C13.3597 14.7205 13.2432 15.1383 13.2413 15.5644C13.2413 16.0394 13.3821 16.5038 13.646 16.8988C13.91 17.2938 14.2851 17.6016 14.724 17.7834C15.1629 17.9652 15.6458 18.0128 16.1117 17.9201C16.5776 17.8274 17.0056 17.5987 17.3415 17.2628C17.6774 16.9269 17.9062 16.4989 17.9989 16.033C18.0915 15.567 18.044 15.0841 17.8622 14.6452C17.6804 14.2063 17.3725 13.8312 16.9775 13.5673C16.5826 13.3034 16.1182 13.1625 15.6431 13.1625L15.5981 13.2019ZM2.40188 16.8019C2.16515 16.8019 1.93373 16.7317 1.73682 16.6003C1.53992 16.4689 1.38635 16.2821 1.2955 16.0635C1.20466 15.8449 1.18061 15.6043 1.22638 15.3721C1.27216 15.1398 1.38571 14.9263 1.55271 14.7585C1.71971 14.5908 1.93267 14.4762 2.16471 14.4293C2.39675 14.3825 2.63747 14.4054 2.8565 14.4952C3.07552 14.585 3.26303 14.7377 3.39535 14.934C3.52768 15.1303 3.59889 15.3614 3.6 15.5981C3.60001 15.9164 3.47396 16.2217 3.24943 16.4473C3.02489 16.6729 2.72016 16.8004 2.40188 16.8019ZM15.6038 16.8019C15.3668 16.8019 15.1351 16.7316 14.9381 16.6C14.7411 16.4683 14.5875 16.2812 14.4968 16.0623C14.4061 15.8433 14.3824 15.6024 14.4287 15.37C14.4749 15.1376 14.589 14.9241 14.7566 14.7566C14.9241 14.589 15.1376 14.4749 15.37 14.4287C15.6024 14.3824 15.8433 14.4061 16.0623 14.4968C16.2812 14.5875 16.4683 14.7411 16.6 14.9381C16.7316 15.1351 16.8019 15.3668 16.8019 15.6038C16.8004 15.922 16.6729 16.2268 16.4473 16.4513C16.2217 16.6758 15.9164 16.8019 15.5981 16.8019H15.6038Z" fill="#DE8734"/>
<path d="M2.40188 4.79813C2.82799 4.79622 3.24573 4.67964 3.61125 4.46063L4.35938 5.20313C3.70713 6.00053 3.27132 6.95253 3.09398 7.96734C2.91663 8.98214 3.00373 10.0255 3.34688 10.9969C3.40157 11.1455 3.51215 11.2669 3.65505 11.3352C3.79794 11.4035 3.96187 11.4133 4.11188 11.3625C4.18795 11.3383 4.25845 11.2992 4.31927 11.2475C4.38009 11.1958 4.43002 11.1325 4.46614 11.0613C4.50226 10.9901 4.52386 10.9124 4.52967 10.8328C4.53548 10.7532 4.5254 10.6732 4.5 10.5975C4.16313 9.58045 4.17634 8.47991 4.53753 7.47124C4.89873 6.46257 5.58713 5.60381 6.49304 5.03179C7.39895 4.45977 8.47025 4.20741 9.53624 4.31492C10.6022 4.42242 11.6016 4.88362 12.375 5.625C12.4885 5.73598 12.6409 5.79811 12.7997 5.79811C12.9584 5.79811 13.1109 5.73598 13.2244 5.625L14.3494 4.5C14.7149 4.71901 15.1326 4.83559 15.5588 4.8375C16.0338 4.8375 16.4982 4.69664 16.8932 4.43272C17.2882 4.16879 17.596 3.79367 17.7778 3.35479C17.9596 2.9159 18.0072 2.43296 17.9145 1.96705C17.8218 1.50113 17.593 1.07316 17.2571 0.737247C16.9212 0.401339 16.4933 0.172583 16.0273 0.0799057C15.5614 -0.0127712 15.0785 0.0347939 14.6396 0.216586C14.2007 0.398378 13.8256 0.706233 13.5617 1.10122C13.2977 1.49621 13.1569 1.96058 13.1569 2.43563C13.1588 2.86174 13.2754 3.27948 13.4944 3.645L12.7969 4.35375C11.7261 3.47632 10.3844 2.99685 9 2.99685C7.61561 2.99685 6.27395 3.47632 5.20313 4.35375L4.46063 3.61125C4.67964 3.24573 4.79622 2.82799 4.79813 2.40188C4.79924 1.92636 4.65918 1.4612 4.39568 1.06536C4.13219 0.669509 3.75713 0.360783 3.31801 0.178294C2.8789 -0.0041948 2.3955 -0.0522339 1.92906 0.0402636C1.46261 0.132761 1.03413 0.361632 0.697879 0.697879C0.361632 1.03413 0.132761 1.46261 0.0402636 1.92906C-0.0522339 2.3955 -0.0041948 2.8789 0.178294 3.31801C0.360783 3.75713 0.669509 4.13219 1.06536 4.39568C1.4612 4.65918 1.92636 4.79924 2.40188 4.79813ZM15.6038 1.19813C15.8402 1.19924 16.0711 1.27031 16.2673 1.40239C16.4634 1.53447 16.6161 1.72165 16.7061 1.94034C16.7961 2.15904 16.8194 2.39948 16.7729 2.63137C16.7265 2.86325 16.6125 3.07622 16.4453 3.24344C16.2781 3.41066 16.0651 3.52466 15.8332 3.57107C15.6014 3.61748 15.3609 3.59423 15.1422 3.50424C14.9235 3.41425 14.7363 3.26156 14.6043 3.0654C14.4722 2.86923 14.4011 2.63836 14.4 2.40188C14.4 2.0836 14.5261 1.77827 14.7506 1.55268C14.9751 1.3271 15.2799 1.19962 15.5981 1.19813H15.6038ZM2.40188 1.19813C2.63836 1.19924 2.86923 1.27031 3.0654 1.40239C3.26156 1.53447 3.41425 1.72165 3.50424 1.94034C3.59423 2.15904 3.61748 2.39948 3.57107 2.63137C3.52466 2.86325 3.41066 3.07622 3.24344 3.24344C3.07622 3.41066 2.86325 3.52466 2.63137 3.57107C2.39948 3.61748 2.15904 3.59423 1.94034 3.50424C1.72165 3.41425 1.53447 3.26156 1.40239 3.0654C1.27031 2.86923 1.19924 2.63836 1.19813 2.40188C1.19813 2.08262 1.32495 1.77645 1.5507 1.5507C1.77645 1.32495 2.08262 1.19813 2.40188 1.19813Z" fill="#DE8734"/>
</svg>
