<svg width="18" height="18" viewBox="0 0 18 18" fill="none" xmlns="http://www.w3.org/2000/svg">
    <path
        d="M2.4375 4.46803H9.09857C9.29933 5.38183 10.1154 6.06785 11.0886 6.06785C12.0618 6.06785 12.8779 5.38185 13.0786 4.46803H15.5625C15.8041 4.46803 16 4.27214 16 4.03053C16 3.78892 15.8041 3.59303 15.5625 3.59303H13.0784C12.8773 2.67969 12.0601 1.99323 11.0886 1.99323C10.1166 1.99323 9.2998 2.67958 9.09874 3.59303H2.4375C2.19589 3.59303 2 3.78892 2 4.03053C2 4.27214 2.19589 4.46803 2.4375 4.46803ZM9.92632 4.03167C9.92632 4.03012 9.92635 4.02853 9.92635 4.02697C9.92827 3.38803 10.4496 2.86825 11.0886 2.86825C11.7267 2.86825 12.2481 3.38732 12.2508 4.02596L12.2509 4.03239C12.2499 4.67242 11.7289 5.19288 11.0886 5.19288C10.4486 5.19288 9.92775 4.67294 9.9263 4.03329L9.92632 4.03167ZM15.5625 13.532H13.0784C12.8772 12.6187 12.0601 11.9322 11.0886 11.9322C10.1166 11.9322 9.2998 12.6185 9.09874 13.532H2.4375C2.19589 13.532 2 13.7278 2 13.9695C2 14.2111 2.19589 14.407 2.4375 14.407H9.09857C9.29933 15.3208 10.1154 16.0068 11.0886 16.0068C12.0618 16.0068 12.8779 15.3208 13.0786 14.407H15.5625C15.8041 14.407 16 14.2111 16 13.9695C16 13.7278 15.8041 13.532 15.5625 13.532ZM11.0886 15.1318C10.4486 15.1318 9.92775 14.6118 9.9263 13.9722L9.92632 13.9706C9.92632 13.969 9.92635 13.9675 9.92635 13.9659C9.92827 13.327 10.4496 12.8072 11.0886 12.8072C11.7267 12.8072 12.2481 13.3262 12.2508 13.9648L12.2509 13.9713C12.25 14.6114 11.7289 15.1318 11.0886 15.1318ZM15.5625 8.56251H8.90143C8.70067 7.64871 7.88462 6.96271 6.9114 6.96271C5.93818 6.96271 5.12214 7.64871 4.92138 8.56251H2.4375C2.19589 8.56251 2 8.7584 2 9.00001C2 9.24164 2.19589 9.43751 2.4375 9.43751H4.9216C5.12277 10.3508 5.93991 11.0373 6.9114 11.0373C7.88342 11.0373 8.7002 10.3509 8.90126 9.43751H15.5625C15.8041 9.43751 16 9.24164 16 9.00001C16 8.7584 15.8041 8.56251 15.5625 8.56251ZM8.07368 8.99886C8.07368 9.00044 8.07365 9.002 8.07365 9.00356C8.07173 9.6425 7.55037 10.1623 6.9114 10.1623C6.27334 10.1623 5.75195 9.64321 5.74918 9.0046L5.7491 8.9982C5.75006 8.35808 6.27109 7.83771 6.9114 7.83771C7.55141 7.83771 8.07225 8.35762 8.0737 8.9973L8.07368 8.99886Z"
        fill="currentColor" />
</svg>