<svg width="17" height="17" viewBox="0 0 17 17" fill="none" xmlns="http://www.w3.org/2000/svg">
<path d="M4.6 16.5001H1C0.75 16.5001 0.5 16.2501 0.5 16.0001V12.3501C0.5 12.0501 0.75 11.8501 1 11.8501H4.5V16.0001C4.5 16.1501 4.55 16.3501 4.6 16.5001Z" fill="#DE8734"/>
<path d="M11.5 10V16C11.5 16.25 11.25 16.5 11 16.5H6C5.75 16.5 5.5 16.25 5.5 16V10C5.5 9.7 5.75 9.5 6 9.5H11C11.25 9.5 11.5 9.7 11.5 10Z" fill="#DE8734"/>
<path d="M16.4999 13V16C16.4999 16.25 16.2499 16.5 15.9999 16.5H12.3999C12.4499 16.35 12.4999 16.15 12.4999 16V12.5H15.9999C16.2499 12.5 16.4999 12.7 16.4999 13Z" fill="#DE8734"/>
<path d="M12.5499 4.00005L10.8999 5.60005L11.2999 7.90005C11.3499 8.10005 11.2499 8.30005 11.0999 8.40005C10.9499 8.50005 10.6999 8.50005 10.5499 8.45005L8.49994 7.35005L6.44994 8.40005C6.29994 8.50005 6.09994 8.50005 5.94994 8.35005C5.79994 8.25005 5.69994 8.05005 5.74994 7.85005L6.14994 5.55005L4.44994 4.00005C4.34994 3.90005 4.29994 3.70005 4.34994 3.50005C4.39994 3.30005 4.54994 3.20005 4.74994 3.15005L7.04994 2.80005L8.04994 0.750049C8.19994 0.400049 8.79994 0.400049 8.94994 0.750049L9.94994 2.80005L12.2499 3.15005C12.4499 3.20005 12.5999 3.30005 12.6499 3.50005C12.6999 3.70005 12.6499 3.90005 12.5499 4.00005Z" fill="#DE8734"/>
</svg>
