<svg width="20" height="16" viewBox="0 0 20 16" fill="none" xmlns="http://www.w3.org/2000/svg">
<path d="M18.75 15.5H1.25001C0.559622 15.5 0 14.9404 0 14.25C0 13.5597 0.559622 13 1.25001 13H18.75C19.4403 13 20 13.5597 20 14.25C20 14.9404 19.4403 15.5 18.75 15.5Z" fill="#F4F4F4"/>
<path d="M18.75 9.24999H1.25001C0.559622 9.24999 0 8.69037 0 8.00003C0 7.30969 0.559622 6.75003 1.25001 6.75003H18.75C19.4403 6.75003 20 7.30965 20 8.00003C20 8.69042 19.4403 9.24999 18.75 9.24999Z" fill="#F4F4F4"/>
<path d="M18.75 3.00001H1.25001C0.559622 3.00001 0 2.44039 0 1.75001C0 1.05962 0.559622 0.5 1.25001 0.5H18.75C19.4403 0.5 20 1.05962 20 1.75001C20 2.44039 19.4403 3.00001 18.75 3.00001Z" fill="#F4F4F4"/>
</svg>
