<svg width="21" height="19" viewBox="0 0 21 19" fill="none" xmlns="http://www.w3.org/2000/svg">
    <g clip-path="url(#clip0_24_338)">
        <path fill-rule="evenodd" clip-rule="evenodd"
            d="M2.417 4.31961L14.3182 1.13106C15.4794 0.819895 16.6726 1.50896 16.9831 2.66949L17.4248 4.31744H18.4787C19.6806 4.31744 20.6547 5.29155 20.6547 6.49342V15.9227C20.6547 17.1246 19.6806 18.0987 18.4787 18.0987C14.9659 18.0987 6.03421 18.0987 2.52145 18.0987C1.31958 18.0987 0.345459 17.1246 0.345459 15.9227C0.345459 13.5501 0.345459 8.86597 0.345459 6.49342C0.345459 5.32709 1.26373 4.37473 2.417 4.31961ZM19.204 8.66941V6.49342C19.204 6.09304 18.8791 5.76809 18.4787 5.76809H2.5345H2.52797H2.51129C2.11526 5.77317 1.79612 6.09594 1.79612 6.49342V15.9227C1.79612 16.3231 2.12106 16.648 2.52145 16.648H18.4787C18.8791 16.648 19.204 16.3231 19.204 15.9227V13.7467H14.1267C13.7423 13.7467 13.3731 13.5937 13.1011 13.3217C12.8291 13.0497 12.6761 12.6805 12.6761 12.2961C12.6761 11.6643 12.6761 10.7518 12.6761 10.1201C12.6761 9.73564 12.8291 9.36645 13.1011 9.09445C13.3731 8.82245 13.7423 8.66941 14.1267 8.66941H19.204ZM14.1267 10.1201V12.2961H19.204V10.1201H14.1267ZM15.9233 4.31744L15.5824 3.04521C15.4787 2.65788 15.0805 2.42868 14.6939 2.5324L8.03104 4.31744H15.9233Z"
            fill="currentColor" />
    </g>
    <defs>
        <clipPath id="clip0_24_338">
            <rect width="21" height="18.7895" fill="currentColor" />
        </clipPath>
    </defs>
</svg>