<svg width="21" height="21" viewBox="0 0 21 21" fill="none" xmlns="http://www.w3.org/2000/svg">
<g clip-path="url(#clip0_31_108)">
<path d="M11.48 21H9.52C8.85763 21 8.2985 20.5039 8.21975 19.845L8.01062 18.2035C7.59325 18.0679 7.19075 17.9008 6.80838 17.7056L5.50113 18.7215C4.97088 19.1319 4.2245 19.0846 3.76425 18.6112L2.38613 17.2331C1.91625 16.7773 1.869 16.0309 2.27938 15.5015L3.29525 14.1934C3.09925 13.811 2.93213 13.4085 2.79737 12.9911L1.15237 12.782C0.496125 12.7015 0 12.1424 0 11.48V9.52C0 8.85763 0.496125 8.2985 1.155 8.21975L2.7965 8.01062C2.93213 7.59325 3.09925 7.19075 3.29438 6.80838L2.27938 5.50113C1.86812 4.97088 1.91625 4.22363 2.3905 3.76338L3.76863 2.38525C4.2245 1.91538 4.97175 1.869 5.50025 2.2785L6.8075 3.29525C7.18988 3.10013 7.59237 2.933 8.01062 2.79737L8.21975 1.15237C8.2985 0.496125 8.85763 0 9.52 0H11.48C12.1424 0 12.7015 0.496125 12.7802 1.155L12.9894 2.7965C13.4076 2.93213 13.8101 3.09925 14.1925 3.29438L15.4998 2.2785C16.0309 1.86813 16.7764 1.91537 17.2366 2.38963L18.6147 3.76775C19.0846 4.22363 19.1319 4.97 18.7215 5.49937L17.7056 6.8075C17.9016 7.18988 18.0688 7.59238 18.2035 8.00975L19.8485 8.21887C20.5039 8.2985 21 8.85763 21 9.52V11.48C21 12.1424 20.5039 12.7015 19.845 12.7802L18.2035 12.9894C18.0679 13.4068 17.9008 13.8092 17.7056 14.1916L18.7215 15.4989C19.1327 16.0291 19.0846 16.7755 18.6104 17.2358L17.2323 18.6139C16.7764 19.0837 16.0291 19.1319 15.5006 18.7206L14.1925 17.7048C13.8101 17.9007 13.4076 18.0679 12.9902 18.2026L12.7811 19.8476C12.7015 20.5039 12.1424 21 11.48 21ZM6.76375 16.7475C6.83638 16.7475 6.91075 16.7659 6.97725 16.8026C7.45937 17.0721 7.98175 17.2891 8.5295 17.4466C8.6975 17.4947 8.82088 17.6383 8.84275 17.8115L9.08775 19.7365C9.114 19.9561 9.30387 20.125 9.52 20.125H11.48C11.6961 20.125 11.886 19.9561 11.9114 19.7409L12.1573 17.8124C12.1791 17.6391 12.3025 17.4956 12.4705 17.4475C13.0182 17.29 13.5406 17.073 14.0227 16.8035C14.1759 16.7178 14.3666 16.7326 14.504 16.8403L16.0352 18.0303C16.2111 18.1667 16.4579 18.1554 16.6084 18.0005L17.9953 16.6136C18.1536 16.4596 18.1659 16.2129 18.0294 16.0361L16.8394 14.5049C16.7318 14.3666 16.7169 14.1768 16.8026 14.0236C17.0721 13.5415 17.2891 13.0191 17.4466 12.4714C17.4947 12.3034 17.6383 12.18 17.8115 12.1581L19.7365 11.9131C19.9561 11.886 20.125 11.6961 20.125 11.48V9.52C20.125 9.30387 19.9561 9.114 19.7409 9.08862L17.8124 8.84275C17.6391 8.82088 17.4956 8.6975 17.4475 8.5295C17.29 7.98175 17.073 7.45937 16.8035 6.97725C16.7178 6.82412 16.7318 6.63425 16.8403 6.496L18.0303 4.96475C18.1676 4.788 18.1554 4.54125 18.0014 4.3925L16.6145 3.00563C16.4614 2.84637 16.2137 2.83412 16.037 2.9715L14.5057 4.1615C14.3666 4.26912 14.1768 4.284 14.0236 4.19825C13.5433 3.92875 13.0209 3.71262 12.4714 3.55425C12.3034 3.50612 12.18 3.36262 12.1581 3.18937L11.9131 1.26438C11.886 1.04388 11.6961 0.875 11.48 0.875H9.52C9.30387 0.875 9.114 1.04387 9.08862 1.25912L8.84275 3.18762C8.82088 3.36087 8.6975 3.50437 8.5295 3.55337C7.98 3.71087 7.45762 3.92788 6.97725 4.1965C6.82412 4.28312 6.63425 4.26737 6.49512 4.16062L4.96387 2.97062C4.78712 2.83325 4.54125 2.8455 4.39162 2.9995L3.00475 4.38725C2.84637 4.54125 2.83413 4.788 2.97062 4.96475L4.16062 6.496C4.26825 6.63425 4.28312 6.82412 4.19737 6.97725C3.927 7.45937 3.71087 7.98175 3.55337 8.5295C3.50525 8.6975 3.36175 8.82088 3.1885 8.84275L1.2635 9.08775C1.04387 9.114 0.875 9.30387 0.875 9.52V11.48C0.875 11.6961 1.04387 11.886 1.25912 11.9114L3.18762 12.1573C3.36087 12.1791 3.50437 12.3025 3.5525 12.4705C3.71 13.0182 3.927 13.5406 4.1965 14.0227C4.28225 14.1759 4.26825 14.3658 4.15975 14.504L2.96975 16.0352C2.83238 16.212 2.84462 16.4587 2.99863 16.6075L4.3855 17.9944C4.53863 18.1528 4.7845 18.165 4.963 18.0285L6.49425 16.8385C6.57387 16.779 6.66838 16.7475 6.76375 16.7475Z" fill="currentColor"/>
<path d="M10.5 14.875C8.08763 14.875 6.125 12.9124 6.125 10.5C6.125 8.08763 8.08763 6.125 10.5 6.125C12.9124 6.125 14.875 8.08763 14.875 10.5C14.875 12.9124 12.9124 14.875 10.5 14.875ZM10.5 7C8.56975 7 7 8.56975 7 10.5C7 12.4303 8.56975 14 10.5 14C12.4303 14 14 12.4303 14 10.5C14 8.56975 12.4303 7 10.5 7Z" fill="currentColor"/>
</g>
<defs>
<clipPath id="clip0_31_108">
<rect width="21" height="21" fill="currentColor"/>
</clipPath>
</defs>
</svg>
