<svg width="21" height="21" viewBox="0 0 21 21" fill="none" xmlns="http://www.w3.org/2000/svg">
<path d="M16.0588 0V1.23529H18.852L14.3684 5.55882H8.37533L3.66235 10.7003L4.57293 11.535L8.91878 6.79412H14.8669L19.7647 2.07126V4.94118H21V0L16.0588 0Z" fill="currentColor"/>
<path d="M19.7647 8.02941H13.5882V10.5H8.64706V13.5882H3.70588V18.5294H2.47059V0H1.23529V18.5294H0V19.7647H1.23529V21H2.47059V19.7647H21V18.5294H19.7647V8.02941ZM4.94118 18.5294V14.8235H8.64706V18.5294H4.94118ZM9.88235 18.5294V11.7353H13.5882V18.5294H9.88235ZM14.8235 18.5294V9.26471H18.5294V18.5294H14.8235Z" fill="currentColor"/>
</svg>
