<svg width="21" height="21" viewBox="0 0 21 21" fill="none" xmlns="http://www.w3.org/2000/svg">
<g clip-path="url(#clip0_24_345)">
<g clip-path="url(#clip1_24_345)">
<path d="M19.1223 1.21075H13.5594C13.0746 1.21075 12.6817 1.60369 12.6817 2.0885C12.6817 2.5733 13.0746 2.96624 13.5594 2.96624H17.0033L8.5867 11.3828C8.24389 11.7256 8.24389 12.2813 8.5867 12.6241C8.75815 12.7955 8.98275 12.8812 9.20736 12.8812C9.43196 12.8812 9.65657 12.7955 9.82802 12.6241L18.2446 4.20756V7.65153C18.2446 8.13634 18.6375 8.52927 19.1223 8.52927C19.6071 8.52927 20.0001 8.13634 20.0001 7.65153V2.08859C20.0001 1.60369 19.6071 1.21075 19.1223 1.21075Z" fill="currentColor"/>
<path d="M15.5315 8.52919C15.0467 8.52919 14.6538 8.92213 14.6538 9.40693V18.0338H2.75548V6.13549H11.9014C12.3862 6.13549 12.7791 5.74255 12.7791 5.25775C12.7791 4.77294 12.3862 4.38 11.9014 4.38H1.87774C1.39294 4.38 1 4.77294 1 5.25775V18.9115C1 19.3963 1.39294 19.7893 1.87774 19.7893H15.5315C16.0163 19.7893 16.4093 19.3963 16.4093 18.9115V9.40693C16.4093 8.92213 16.0163 8.52919 15.5315 8.52919Z" fill="currentColor"/>
</g>
</g>
<defs>
<clipPath id="clip0_24_345">
<rect width="21" height="21" fill="currentColor"/>
</clipPath>
<clipPath id="clip1_24_345">
<rect width="19" height="19" fill="currentColor" transform="translate(1 1)"/>
</clipPath>
</defs>
</svg>
