<svg width="21" height="21" viewBox="0 0 21 21" fill="none" xmlns="http://www.w3.org/2000/svg">
<g clip-path="url(#clip0_31_90)">
<path d="M10.4185 2.73497C8.91734 2.75589 7.50396 3.35873 6.43862 4.43243C5.37342 5.50605 4.78156 6.92411 4.77209 8.42548C4.76454 9.61906 5.12072 10.7652 5.80211 11.74C6.43231 12.6417 6.81006 13.6916 6.91194 14.8061H5.99656V16.0366H6.94098V18.5809H8.25495V18.7551C8.25495 19.9929 9.26204 21 10.4999 21C11.7377 21 12.7449 19.9929 12.7449 18.7551V18.5809H14.0588V16.0366H15.0032V14.8061H14.0877C14.1922 13.6996 14.5782 12.6393 15.2195 11.7086C15.8792 10.7513 16.2278 9.62878 16.2278 8.46235C16.2278 6.9173 15.6219 5.46885 14.5217 4.38383C13.4217 3.29901 11.9656 2.71299 10.4185 2.73497ZM11.5144 18.7551C11.5144 19.3145 11.0593 19.7696 10.4999 19.7696C9.94051 19.7696 9.48545 19.3145 9.48545 18.7551V18.5809H11.5144V18.7551ZM12.8284 17.3505H8.17148V16.0366H12.8284V17.3505ZM14.2063 11.0104C13.4226 12.1477 12.9603 13.4491 12.8528 14.8061H8.14777C8.04249 13.4371 7.5857 12.144 6.81063 11.0351C6.27608 10.2703 5.99664 9.37059 6.00251 8.43319C6.01785 6.0034 8.00652 3.9991 10.4356 3.96527C11.6483 3.94779 12.794 4.40811 13.6577 5.25987C14.5216 6.1118 14.9973 7.24912 14.9973 8.46231C14.9974 9.3783 14.7238 10.2594 14.2063 11.0104Z" fill="currentColor"/>
<path d="M9.88477 0H11.1152V1.64071H9.88477V0Z" fill="currentColor"/>
<path d="M5.73584 1.44128L6.80143 0.82605L7.62178 2.2469L6.55619 2.86214L5.73584 1.44128Z" fill="currentColor"/>
<path d="M2.86377 4.76398L3.479 3.69839L4.89986 4.51874L4.28462 5.58433L2.86377 4.76398Z" fill="currentColor"/>
<path d="M2.0376 7.84705H3.6783V9.07751H2.0376V7.84705Z" fill="currentColor"/>
<path d="M17.3215 7.84705H18.9623V9.07751H17.3215V7.84705Z" fill="currentColor"/>
<path d="M16.0996 4.51849L17.5205 3.69814L18.1357 4.76373L16.7148 5.58408L16.0996 4.51849Z" fill="currentColor"/>
<path d="M13.3777 2.24731L14.198 0.826463L15.2636 1.4417L14.4433 2.86255L13.3777 2.24731Z" fill="currentColor"/>
<path d="M11.2881 8.2849H10.022C9.75068 8.2849 9.52998 8.06424 9.52998 7.79297C9.52998 7.52169 9.75068 7.30103 10.022 7.30103H12.1596V6.07057H11.1151V5.29907H9.88468V6.07652C8.99895 6.14678 8.29956 6.88948 8.29956 7.79297C8.29956 8.74272 9.07225 9.51536 10.022 9.51536H11.2881C11.5841 9.51536 11.8249 9.75616 11.8249 10.0521C11.8249 10.3481 11.5841 10.5889 11.2881 10.5889H8.5598V11.8194H9.88472V12.5909H11.1152V11.8194H11.2881C12.2626 11.8194 13.0553 11.0266 13.0553 10.0521C13.0553 9.07769 12.2625 8.2849 11.2881 8.2849Z" fill="currentColor"/>
</g>
<defs>
<clipPath id="clip0_31_90">
<rect width="21" height="21" fill="currentColor"/>
</clipPath>
</defs>
</svg>
