<svg width="21" height="21" viewBox="0 0 21 21" fill="none" xmlns="http://www.w3.org/2000/svg">
<g clip-path="url(#clip0_24_369)">
<g clip-path="url(#clip1_24_369)">
<path d="M13.3021 8.4C13.3021 7.84578 13.1378 7.304 12.8299 6.84319C12.522 6.38237 12.0843 6.0232 11.5723 5.81111C11.0603 5.59902 10.4968 5.54353 9.95326 5.65165C9.40969 5.75978 8.91039 6.02666 8.5185 6.41855C8.1266 6.81044 7.85972 7.30975 7.7516 7.85332C7.64348 8.39689 7.69897 8.96032 7.91106 9.47235C8.12315 9.98438 8.48231 10.422 8.94313 10.7299C9.40395 11.0378 9.94572 11.2022 10.4999 11.2022C11.2431 11.2022 11.9559 10.907 12.4814 10.3814C13.0069 9.85593 13.3021 9.14318 13.3021 8.4ZM9.10213 8.4C9.10213 8.12354 9.18411 7.85328 9.3377 7.62341C9.4913 7.39355 9.70961 7.21438 9.96502 7.10859C10.2204 7.00279 10.5015 6.97511 10.7726 7.02904C11.0438 7.08298 11.2929 7.21611 11.4883 7.41159C11.6838 7.60708 11.817 7.85615 11.8709 8.1273C11.9248 8.39845 11.8972 8.6795 11.7914 8.93492C11.6856 9.19033 11.5064 9.40864 11.2765 9.56224C11.0467 9.71583 10.7764 9.79781 10.4999 9.79781C10.1298 9.79608 9.77521 9.64826 9.51345 9.38649C9.25168 9.12473 9.10386 8.77019 9.10213 8.4Z" fill="currentColor"/>
<path d="M7.08092 13.4072C7.03332 13.4889 7.00275 13.5795 6.99101 13.6734C6.97928 13.7672 6.98664 13.8625 7.01265 13.9535C7.03866 14.0444 7.08278 14.1292 7.14237 14.2027C7.20195 14.2762 7.27577 14.3368 7.35939 14.3811C7.44301 14.4253 7.53471 14.4522 7.62898 14.4601C7.72326 14.4681 7.81816 14.4569 7.90799 14.4272C7.99782 14.3975 8.08073 14.35 8.15175 14.2875C8.22276 14.225 8.28041 14.1488 8.32123 14.0634C8.43844 13.8356 8.61628 13.6446 8.83513 13.5115C9.05399 13.3783 9.30536 13.3082 9.56154 13.3087H11.4319C11.688 13.3082 11.9394 13.3783 12.1583 13.5115C12.3771 13.6446 12.555 13.8356 12.6722 14.0634C12.7589 14.2274 12.9064 14.3508 13.083 14.4073C13.2597 14.4637 13.4515 14.4486 13.6172 14.3653C13.7824 14.2799 13.9069 14.1324 13.9635 13.9552C14.0201 13.7781 14.0041 13.5857 13.919 13.4203C13.6835 12.9642 13.3267 12.5819 12.8878 12.3156C12.449 12.0493 11.9452 11.9093 11.4319 11.9109H9.56154C9.05068 11.9092 8.54917 12.0479 8.11173 12.3117C7.67429 12.5756 7.31771 12.9545 7.08092 13.4072Z" fill="currentColor"/>
<path d="M18.1977 15.4022C17.7006 15.4044 17.2133 15.5404 16.7868 15.7959L15.9206 14.9297C16.6821 13.9984 17.1908 12.8866 17.3977 11.7015C17.6046 10.5164 17.5027 9.29799 17.1018 8.16374C17.0808 8.06616 17.0392 7.97418 16.9798 7.89395C16.9204 7.81372 16.8446 7.74707 16.7574 7.69845C16.6702 7.64984 16.5736 7.62037 16.4741 7.61202C16.3747 7.60367 16.2746 7.61662 16.1805 7.65002C16.0864 7.68341 16.0005 7.73649 15.9286 7.80569C15.8567 7.8749 15.8003 7.95865 15.7633 8.05136C15.7263 8.14406 15.7094 8.2436 15.7139 8.34333C15.7184 8.44305 15.7441 8.54067 15.7893 8.62968C16.1334 9.62686 16.1891 10.7009 15.9499 11.7283C15.7108 12.7557 15.1865 13.6948 14.4374 14.4375C13.3894 15.4746 11.9744 16.0564 10.4999 16.0564C9.02544 16.0564 7.61049 15.4746 6.56243 14.4375C6.49715 14.3716 6.41946 14.3193 6.33386 14.2836C6.24825 14.248 6.15643 14.2296 6.06368 14.2296C5.97094 14.2296 5.87911 14.248 5.79351 14.2836C5.7079 14.3193 5.63022 14.3716 5.56493 14.4375L4.25243 15.75C3.82599 15.4945 3.33862 15.3585 2.8415 15.3562C2.28728 15.3562 1.7455 15.5206 1.28468 15.8285C0.823866 16.1364 0.464703 16.574 0.252612 17.0861C0.0405208 17.5981 -0.0149719 18.1615 0.0931511 18.7051C0.201274 19.2487 0.468157 19.748 0.86005 20.1399C1.25194 20.5318 1.75124 20.7987 2.29482 20.9068C2.83839 21.0149 3.40181 20.9594 3.91385 20.7473C4.42588 20.5352 4.86352 20.1761 5.17143 19.7152C5.47934 19.2544 5.64368 18.7126 5.64368 18.1584C5.64145 17.6613 5.50544 17.1739 5.24993 16.7475L6.11618 15.8812C7.366 16.9037 8.93108 17.4624 10.5459 17.4624C12.1607 17.4624 13.7257 16.9037 14.9756 15.8812L15.8418 16.7475C15.5863 17.1739 15.4503 17.6613 15.4481 18.1584C15.4481 18.7126 15.6124 19.2544 15.9203 19.7152C16.2282 20.1761 16.6659 20.5352 17.1779 20.7473C17.6899 20.9594 18.2534 21.0149 18.7969 20.9068C19.3405 20.7987 19.8398 20.5318 20.2317 20.1399C20.6236 19.748 20.8905 19.2487 20.9986 18.7051C21.1067 18.1615 21.0512 17.5981 20.8391 17.0861C20.627 16.574 20.2679 16.1364 19.8071 15.8285C19.3462 15.5206 18.8045 15.3562 18.2502 15.3562L18.1977 15.4022ZM2.80212 19.6022C2.52594 19.6022 2.25595 19.5204 2.02622 19.3671C1.7965 19.2137 1.61734 18.9958 1.51135 18.7408C1.40536 18.4858 1.3773 18.205 1.43071 17.9341C1.48411 17.6631 1.61659 17.414 1.81142 17.2183C2.00625 17.0225 2.2547 16.8889 2.52542 16.8342C2.79614 16.7795 3.07698 16.8063 3.33251 16.9111C3.58804 17.0159 3.8068 17.194 3.96118 17.423C4.11556 17.652 4.19864 17.9216 4.19993 18.1978C4.19994 18.5691 4.05288 18.9254 3.79092 19.1885C3.52897 19.4517 3.17345 19.6004 2.80212 19.6022ZM18.2043 19.6022C17.9278 19.6022 17.6576 19.5202 17.4277 19.3666C17.1979 19.213 17.0187 18.9947 16.9129 18.7393C16.8071 18.4839 16.7794 18.2028 16.8334 17.9317C16.8873 17.6605 17.0204 17.4115 17.2159 17.216C17.4114 17.0205 17.6605 16.8873 17.9316 16.8334C18.2028 16.7795 18.4838 16.8072 18.7392 16.913C18.9946 17.0188 19.213 17.1979 19.3665 17.4278C19.5201 17.6577 19.6021 17.9279 19.6021 18.2044C19.6004 18.5757 19.4517 18.9312 19.1885 19.1932C18.9253 19.4551 18.5691 19.6022 18.1977 19.6022H18.2043Z" fill="currentColor"/>
<path d="M2.80215 5.59781C3.29928 5.59558 3.78664 5.45957 4.21309 5.20406L5.0859 6.07031C4.32494 7.00061 3.8165 8.11128 3.6096 9.29522C3.4027 10.4792 3.50432 11.6964 3.90465 12.8297C3.96846 13.0031 4.09746 13.1447 4.26418 13.2244C4.43089 13.3041 4.62214 13.3155 4.79715 13.2562C4.88591 13.228 4.96816 13.1824 5.03911 13.1221C5.11007 13.0617 5.16831 12.9879 5.21045 12.9048C5.25259 12.8218 5.27779 12.7311 5.28457 12.6383C5.29136 12.5454 5.27959 12.452 5.24996 12.3637C4.85694 11.1772 4.87235 9.89322 5.29375 8.71644C5.71514 7.53965 6.51828 6.53776 7.57517 5.87041C8.63207 5.20305 9.88192 4.90863 11.1256 5.03406C12.3692 5.15948 13.5351 5.69754 14.4375 6.5625C14.5699 6.69196 14.7477 6.76445 14.9329 6.76445C15.1181 6.76445 15.296 6.69196 15.4284 6.5625L16.7409 5.25C17.1673 5.50551 17.6547 5.64151 18.1518 5.64375C18.7061 5.64375 19.2478 5.4794 19.7087 5.17149C20.1695 4.86358 20.5286 4.42594 20.7407 3.91391C20.9528 3.40188 21.0083 2.83845 20.9002 2.29488C20.7921 1.75131 20.5252 1.252 20.1333 0.860112C19.7414 0.468219 19.2421 0.201336 18.6985 0.0932131C18.1549 -0.0149099 17.5915 0.0405827 17.0795 0.252674C16.5675 0.464765 16.1298 0.823928 15.8219 1.28475C15.514 1.74556 15.3497 2.28734 15.3497 2.84156C15.3519 3.33869 15.4879 3.82605 15.7434 4.25249L14.9297 5.07937C13.6804 4.0557 12.1151 3.49631 10.5 3.49631C8.88484 3.49631 7.31957 4.0557 6.07028 5.07937L5.20403 4.21312C5.45954 3.78667 5.59555 3.29931 5.59778 2.80218C5.59907 2.24741 5.43567 1.70473 5.12826 1.24291C4.82085 0.781084 4.38327 0.420904 3.87097 0.208C3.35867 -0.00490411 2.79471 -0.0609497 2.25052 0.046964C1.70634 0.154878 1.20644 0.421894 0.814151 0.814182C0.421863 1.20647 0.154847 1.70637 0.0469335 2.25056C-0.0609802 2.79474 -0.00493463 3.35871 0.207969 3.87101C0.420873 4.38331 0.781053 4.82088 1.24288 5.12829C1.7047 5.4357 2.24737 5.59911 2.80215 5.59781ZM18.2043 1.39781C18.4802 1.39911 18.7496 1.48202 18.9784 1.63611C19.2073 1.7902 19.3854 2.00858 19.4904 2.26372C19.5954 2.51887 19.6225 2.79938 19.5684 3.06992C19.5142 3.34045 19.3813 3.58892 19.1862 3.78401C18.9911 3.9791 18.7426 4.11209 18.4721 4.16624C18.2015 4.22038 17.921 4.19325 17.6659 4.08827C17.4107 3.98329 17.1924 3.80515 17.0383 3.57628C16.8842 3.34742 16.8013 3.07808 16.8 2.80218C16.8 2.43085 16.947 2.07464 17.209 1.81145C17.4709 1.54827 17.8265 1.39954 18.1978 1.39781H18.2043ZM2.80215 1.39781C3.07805 1.39911 3.34739 1.48202 3.57625 1.63611C3.80511 1.7902 3.98326 2.00858 4.08824 2.26372C4.19322 2.51887 4.22035 2.79938 4.16621 3.06992C4.11206 3.34045 3.97907 3.58892 3.78398 3.78401C3.58889 3.9791 3.34042 4.11209 3.06989 4.16624C2.79935 4.22038 2.51884 4.19325 2.26369 4.08827C2.00855 3.98329 1.79017 3.80515 1.63608 3.57628C1.48199 3.34742 1.39908 3.07808 1.39778 2.80218C1.39778 2.42972 1.54574 2.07251 1.80911 1.80914C2.07248 1.54577 2.42969 1.39781 2.80215 1.39781Z" fill="currentColor"/>
</g>
</g>
<defs>
<clipPath id="clip0_24_369">
<rect width="21" height="21" fill="currentColor"/>
</clipPath>
<clipPath id="clip1_24_369">
<rect width="21" height="21" fill="currentColor"/>
</clipPath>
</defs>
</svg>
