<svg width="22" height="16" viewBox="0 0 22 16" fill="none" xmlns="http://www.w3.org/2000/svg">
<path d="M5.92855 1.57143C5.92855 0.979715 6.40827 0.5 6.99998 0.5H20.9286C21.5203 0.5 22 0.979715 22 1.57143C22 2.16314 21.5203 2.64286 20.9286 2.64286H6.99998C6.40827 2.64286 5.92855 2.1631 5.92855 1.57143ZM20.9286 6.92857H1.64284C1.05113 6.92857 0.571411 7.40833 0.571411 8C0.571411 8.59171 1.05113 9.07143 1.64284 9.07143H20.9286C21.5203 9.07143 22 8.59171 22 8C22 7.40833 21.5203 6.92857 20.9286 6.92857ZM20.9286 13.3571H11.2857C10.694 13.3571 10.2143 13.8369 10.2143 14.4286C10.2143 15.0202 10.694 15.5 11.2857 15.5H20.9286C21.5203 15.5 22 15.0202 22 14.4286C22 13.8369 21.5203 13.3571 20.9286 13.3571Z" fill="#F4F4F4"/>
</svg>
