<svg width="21" height="21" viewBox="0 0 21 21" fill="none" xmlns="http://www.w3.org/2000/svg">
<g clip-path="url(#clip0_24_383)">
<path d="M17.6866 7.89666C17.5272 6.2746 16.7707 4.76967 15.5638 3.67419C14.357 2.5787 12.7861 1.97087 11.1562 1.96875H9.84375C8.21388 1.97087 6.64297 2.5787 5.43616 3.67419C4.22935 4.76967 3.47278 6.2746 3.31341 7.89666C2.59295 7.94879 1.91882 8.27125 1.42606 8.79942C0.933307 9.32759 0.658339 10.0224 0.65625 10.7448V12.8802C0.657118 13.6411 0.959748 14.3705 1.49775 14.9085C2.03575 15.4465 2.76518 15.7491 3.52603 15.75H5.25C5.33618 15.75 5.42152 15.733 5.50114 15.7C5.58076 15.6671 5.6531 15.6187 5.71404 15.5578C5.77498 15.4969 5.82332 15.4245 5.8563 15.3449C5.88928 15.2653 5.90625 15.1799 5.90625 15.0938V8.53125C5.90625 8.3572 5.83711 8.19028 5.71404 8.06721C5.59097 7.94414 5.42405 7.875 5.25 7.875H4.63903C4.79986 6.60745 5.41697 5.44191 6.37492 4.59641C7.33287 3.75091 8.56604 3.28337 9.84375 3.28125H11.1562C12.434 3.28337 13.6671 3.75091 14.6251 4.59641C15.583 5.44191 16.2001 6.60745 16.361 7.875H15.75C15.576 7.875 15.409 7.94414 15.286 8.06721C15.1629 8.19028 15.0938 8.3572 15.0938 8.53125V15.0938C15.0938 15.2678 15.1629 15.4347 15.286 15.5578C15.409 15.6809 15.576 15.75 15.75 15.75H16.3131C16.168 16.3118 15.8409 16.8098 15.3828 17.166C14.9247 17.5222 14.3615 17.7166 13.7812 17.7188H12.4688V17.0625C12.4688 16.8885 12.3996 16.7215 12.2765 16.5985C12.1535 16.4754 11.9865 16.4062 11.8125 16.4062C11.6385 16.4062 11.4715 16.4754 11.3485 16.5985C11.2254 16.7215 11.1562 16.8885 11.1562 17.0625V18.375C11.1562 18.549 11.2254 18.716 11.3485 18.839C11.4715 18.9621 11.6385 19.0312 11.8125 19.0312H13.7812C14.7143 19.0302 15.6166 18.6978 16.3274 18.0934C17.0383 17.4889 17.5113 16.6517 17.6623 15.731C18.3874 15.6844 19.0678 15.364 19.5656 14.8347C20.0634 14.3055 20.3416 13.6068 20.3438 12.8802V10.7448C20.3417 10.0224 20.0667 9.32759 19.5739 8.79942C19.0812 8.27125 18.407 7.94879 17.6866 7.89666ZM4.59375 14.4375H3.52603C3.11312 14.4372 2.71722 14.273 2.42525 13.981C2.13328 13.689 1.9691 13.2931 1.96875 12.8802V10.7448C1.9691 10.3319 2.13328 9.93597 2.42525 9.644C2.71722 9.35203 3.11312 9.18785 3.52603 9.1875H4.59375V14.4375ZM19.0312 12.8802C19.0309 13.2931 18.8667 13.689 18.5747 13.981C18.2828 14.273 17.8869 14.4372 17.474 14.4375H16.4062V9.1875H17.474C17.8869 9.18785 18.2828 9.35203 18.5747 9.644C18.8667 9.93597 19.0309 10.3319 19.0312 10.7448V12.8802Z" fill="currentColor"/>
</g>
<defs>
<clipPath id="clip0_24_383">
<rect width="21" height="21" fill="currentColor"/>
</clipPath>
</defs>
</svg>
